<svg width="162" height="214" viewBox="0 0 162 214" fill="none" xmlns="http://www.w3.org/2000/svg">
<g clip-path="url(#clip0_1160_13)" filter="url(#filter0_d_1160_13)">
<rect width="112" height="164" transform="matrix(-1 0 0 -1 135 189)" fill="#1F1F1F"/>
<path d="M51.7441 109.705L54.2578 102.469H55.4824L52.3242 111H51.4512L51.7441 109.705ZM49.3945 102.469L51.8848 109.705L52.1953 111H51.3223L48.1699 102.469H49.3945ZM59.4637 103.225L56.6395 111H55.4852L58.7372 102.469H59.4813L59.4637 103.225ZM61.8309 111L59.0009 103.225L58.9833 102.469H59.7274L62.9911 111H61.8309ZM61.6845 107.842V108.768H56.8915V107.842H61.6845ZM64.6111 102.469H65.7068L68.5017 109.424L71.2908 102.469H72.3923L68.9236 111H68.0681L64.6111 102.469ZM64.2537 102.469H65.2205L65.3787 107.672V111H64.2537V102.469ZM71.7771 102.469H72.7439V111H71.6189V107.672L71.7771 102.469ZM78.1139 103.225L75.2897 111H74.1354L77.3873 102.469H78.1315L78.1139 103.225ZM80.4811 111L77.651 103.225L77.6334 102.469H78.3776L81.6413 111H80.4811ZM80.3346 107.842V108.768H75.5416V107.842H80.3346ZM89.4663 102.469V111H88.3296L84.0347 104.42V111H82.9038V102.469H84.0347L88.3472 109.066V102.469H89.4663ZM98.1586 106.465V107.004C98.1586 107.645 98.0785 108.219 97.9184 108.727C97.7582 109.234 97.5277 109.666 97.227 110.021C96.9262 110.377 96.5648 110.648 96.143 110.836C95.725 111.023 95.2562 111.117 94.7367 111.117C94.2328 111.117 93.7699 111.023 93.348 110.836C92.9301 110.648 92.5668 110.377 92.2582 110.021C91.9535 109.666 91.7172 109.234 91.5492 108.727C91.3812 108.219 91.2973 107.645 91.2973 107.004V106.465C91.2973 105.824 91.3793 105.252 91.5434 104.748C91.7113 104.24 91.9477 103.809 92.2523 103.453C92.557 103.094 92.9184 102.82 93.3363 102.633C93.7582 102.445 94.2211 102.352 94.725 102.352C95.2445 102.352 95.7133 102.445 96.1312 102.633C96.5531 102.82 96.9145 103.094 97.2152 103.453C97.5199 103.809 97.7523 104.24 97.9125 104.748C98.0766 105.252 98.1586 105.824 98.1586 106.465ZM97.0395 107.004V106.453C97.0395 105.945 96.9867 105.496 96.8812 105.105C96.7797 104.715 96.6293 104.387 96.4301 104.121C96.2309 103.855 95.9867 103.654 95.6977 103.518C95.4125 103.381 95.0883 103.312 94.725 103.312C94.3734 103.312 94.0551 103.381 93.7699 103.518C93.4887 103.654 93.2465 103.855 93.0434 104.121C92.8441 104.387 92.6898 104.715 92.5805 105.105C92.4711 105.496 92.4164 105.945 92.4164 106.453V107.004C92.4164 107.516 92.4711 107.969 92.5805 108.363C92.6898 108.754 92.8461 109.084 93.0492 109.354C93.2562 109.619 93.5004 109.82 93.7816 109.957C94.0668 110.094 94.3852 110.162 94.7367 110.162C95.1039 110.162 95.4301 110.094 95.7152 109.957C96.0004 109.82 96.2406 109.619 96.4359 109.354C96.6352 109.084 96.7855 108.754 96.8871 108.363C96.9887 107.969 97.0395 107.516 97.0395 107.004ZM104.519 108.844C104.519 108.645 104.488 108.469 104.425 108.316C104.366 108.16 104.261 108.02 104.109 107.895C103.96 107.77 103.753 107.65 103.488 107.537C103.226 107.424 102.894 107.309 102.491 107.191C102.07 107.066 101.689 106.928 101.349 106.775C101.009 106.619 100.718 106.441 100.476 106.242C100.234 106.043 100.048 105.814 99.9192 105.557C99.7903 105.299 99.7259 105.004 99.7259 104.672C99.7259 104.34 99.7942 104.033 99.9309 103.752C100.068 103.471 100.263 103.227 100.517 103.02C100.775 102.809 101.081 102.645 101.437 102.527C101.792 102.41 102.189 102.352 102.626 102.352C103.267 102.352 103.81 102.475 104.255 102.721C104.704 102.963 105.046 103.281 105.281 103.676C105.515 104.066 105.632 104.484 105.632 104.93H104.507C104.507 104.609 104.439 104.326 104.302 104.08C104.165 103.83 103.958 103.635 103.681 103.494C103.404 103.35 103.052 103.277 102.626 103.277C102.224 103.277 101.892 103.338 101.63 103.459C101.368 103.58 101.173 103.744 101.044 103.951C100.919 104.158 100.857 104.395 100.857 104.66C100.857 104.84 100.894 105.004 100.968 105.152C101.046 105.297 101.165 105.432 101.325 105.557C101.49 105.682 101.697 105.797 101.947 105.902C102.2 106.008 102.503 106.109 102.855 106.207C103.339 106.344 103.757 106.496 104.109 106.664C104.46 106.832 104.749 107.021 104.976 107.232C105.206 107.439 105.376 107.676 105.486 107.941C105.599 108.203 105.656 108.5 105.656 108.832C105.656 109.18 105.585 109.494 105.445 109.775C105.304 110.057 105.103 110.297 104.841 110.496C104.579 110.695 104.265 110.85 103.898 110.959C103.534 111.064 103.128 111.117 102.679 111.117C102.284 111.117 101.896 111.062 101.513 110.953C101.134 110.844 100.788 110.68 100.476 110.461C100.167 110.242 99.9192 109.973 99.7317 109.652C99.5481 109.328 99.4563 108.953 99.4563 108.527H100.581C100.581 108.82 100.638 109.072 100.751 109.283C100.865 109.49 101.019 109.662 101.214 109.799C101.413 109.936 101.638 110.037 101.888 110.104C102.142 110.166 102.406 110.197 102.679 110.197C103.074 110.197 103.408 110.143 103.681 110.033C103.954 109.924 104.161 109.768 104.302 109.564C104.447 109.361 104.519 109.121 104.519 108.844ZM107.07 110.426C107.07 110.242 107.127 110.088 107.24 109.963C107.358 109.834 107.526 109.77 107.744 109.77C107.963 109.77 108.129 109.834 108.242 109.963C108.36 110.088 108.418 110.242 108.418 110.426C108.418 110.605 108.36 110.758 108.242 110.883C108.129 111.008 107.963 111.07 107.744 111.07C107.526 111.07 107.358 111.008 107.24 110.883C107.127 110.758 107.07 110.605 107.07 110.426Z" fill="white"/>
<g clip-path="url(#clip1_1160_13)">
<path d="M126.807 181.056L126.807 184.237C126.807 184.304 126.834 184.367 126.881 184.414C126.927 184.461 126.991 184.488 127.057 184.488C127.124 184.488 127.187 184.461 127.234 184.414C127.281 184.367 127.308 184.304 127.308 184.237L127.307 181.659L130.77 185.121C130.817 185.168 130.88 185.195 130.946 185.195C131.013 185.195 131.076 185.168 131.123 185.121C131.17 185.074 131.196 185.011 131.196 184.945C131.196 184.878 131.17 184.815 131.123 184.768L127.661 181.305L130.239 181.306C130.306 181.306 130.369 181.279 130.416 181.232C130.463 181.185 130.49 181.122 130.49 181.056C130.49 180.989 130.463 180.926 130.416 180.879C130.369 180.832 130.306 180.805 130.239 180.805L127.057 180.805C127.025 180.805 126.992 180.812 126.962 180.824C126.931 180.837 126.904 180.855 126.88 180.879C126.857 180.902 126.839 180.929 126.826 180.96C126.814 180.99 126.807 181.023 126.807 181.056Z" fill="white"/>
</g>
<g clip-path="url(#clip2_1160_13)">
<path d="M30.9464 180.805L27.7645 180.805C27.6981 180.805 27.6345 180.831 27.5876 180.878C27.5407 180.925 27.5143 180.989 27.5143 181.055C27.5143 181.121 27.5407 181.185 27.5876 181.232C27.6345 181.279 27.6981 181.305 27.7645 181.305L30.343 181.305L26.8806 184.767C26.8337 184.814 26.8073 184.878 26.8073 184.944C26.8073 185.01 26.8337 185.074 26.8806 185.121C26.9275 185.168 26.991 185.194 27.0573 185.194C27.1237 185.194 27.1872 185.168 27.2341 185.121L30.6965 181.658L30.6963 184.237C30.6963 184.303 30.7227 184.367 30.7696 184.414C30.8165 184.461 30.8801 184.487 30.9464 184.487C31.0128 184.487 31.0764 184.461 31.1233 184.414C31.1702 184.367 31.1966 184.303 31.1966 184.237L31.1966 181.055C31.1966 181.022 31.1901 180.99 31.1776 180.959C31.165 180.929 31.1466 180.901 31.1234 180.878C31.1001 180.855 31.0725 180.836 31.0422 180.824C31.0118 180.811 30.9793 180.805 30.9464 180.805Z" fill="white"/>
</g>
<g clip-path="url(#clip3_1160_13)">
<path d="M126.807 32.9445L126.807 29.7625C126.807 29.6962 126.834 29.6325 126.881 29.5856C126.927 29.5387 126.991 29.5124 127.057 29.5124C127.124 29.5124 127.187 29.5387 127.234 29.5856C127.281 29.6325 127.308 29.6962 127.308 29.7625L127.307 32.341L130.77 28.8786C130.817 28.8317 130.88 28.8054 130.946 28.8054C131.013 28.8054 131.076 28.8317 131.123 28.8786C131.17 28.9255 131.196 28.9891 131.196 29.0554C131.196 29.1217 131.17 29.1853 131.123 29.2322L127.661 32.6946L130.239 32.6943C130.306 32.6943 130.369 32.7207 130.416 32.7676C130.463 32.8145 130.49 32.8781 130.49 32.9445C130.49 33.0108 130.463 33.0744 130.416 33.1214C130.369 33.1683 130.306 33.1946 130.239 33.1946L127.057 33.1946C127.025 33.1946 126.992 33.1882 126.962 33.1756C126.931 33.1631 126.904 33.1446 126.88 33.1214C126.857 33.0982 126.839 33.0706 126.826 33.0402C126.814 33.0099 126.807 32.9773 126.807 32.9445Z" fill="white"/>
</g>
<g clip-path="url(#clip4_1160_13)">
<path d="M31.1928 32.9445L31.1928 29.7625C31.1928 29.6962 31.1664 29.6325 31.1195 29.5856C31.0726 29.5387 31.009 29.5124 30.9426 29.5124C30.8763 29.5124 30.8127 29.5387 30.7657 29.5856C30.7188 29.6325 30.6925 29.6962 30.6925 29.7625L30.6927 32.341L27.2303 28.8786C27.1834 28.8317 27.1198 28.8054 27.0535 28.8054C26.9872 28.8054 26.9236 28.8317 26.8768 28.8786C26.8299 28.9255 26.8035 28.9891 26.8035 29.0554C26.8035 29.1217 26.8299 29.1853 26.8768 29.2322L30.3391 32.6946L27.7606 32.6943C27.6943 32.6943 27.6307 32.7207 27.5838 32.7676C27.5369 32.8145 27.5105 32.8781 27.5105 32.9445C27.5105 33.0108 27.5369 33.0744 27.5838 33.1214C27.6307 33.1683 27.6943 33.1946 27.7606 33.1946L30.9426 33.1946C30.9755 33.1946 31.008 33.1882 31.0384 33.1756C31.0687 33.1631 31.0963 33.1446 31.1195 33.1214C31.1428 33.0982 31.1612 33.0706 31.1738 33.0402C31.1863 33.0099 31.1928 32.9773 31.1928 32.9445Z" fill="white"/>
</g>
</g>
<defs>
<filter id="filter0_d_1160_13" x="0" y="0" width="162" height="214" filterUnits="userSpaceOnUse" color-interpolation-filters="sRGB">
<feFlood flood-opacity="0" result="BackgroundImageFix"/>
<feColorMatrix in="SourceAlpha" type="matrix" values="0 0 0 0 0 0 0 0 0 0 0 0 0 0 0 0 0 0 127 0" result="hardAlpha"/>
<feOffset dx="2"/>
<feGaussianBlur stdDeviation="12.5"/>
<feComposite in2="hardAlpha" operator="out"/>
<feColorMatrix type="matrix" values="0 0 0 0 0 0 0 0 0 0 0 0 0 0 0 0 0 0 0.05 0"/>
<feBlend mode="normal" in2="BackgroundImageFix" result="effect1_dropShadow_1160_13"/>
<feBlend mode="normal" in="SourceGraphic" in2="effect1_dropShadow_1160_13" result="shape"/>
</filter>
<clipPath id="clip0_1160_13">
<rect width="112" height="164" fill="white" transform="matrix(-1 0 0 -1 135 189)"/>
</clipPath>
<clipPath id="clip1_1160_13">
<rect width="8" height="8" fill="white" transform="matrix(-0.707107 -0.707107 -0.707107 0.707107 134.657 183)"/>
</clipPath>
<clipPath id="clip2_1160_13">
<rect width="8" height="8" fill="white" transform="matrix(0.707107 -0.707107 -0.707107 -0.707107 29 188.656)"/>
</clipPath>
<clipPath id="clip3_1160_13">
<rect width="8" height="8" fill="white" transform="translate(134.657 31) rotate(135)"/>
</clipPath>
<clipPath id="clip4_1160_13">
<rect width="8" height="8" fill="white" transform="matrix(0.707107 0.707107 0.707107 -0.707107 23.3433 31)"/>
</clipPath>
</defs>
</svg>
