<svg width="162" height="214" viewBox="0 0 162 214" fill="none" xmlns="http://www.w3.org/2000/svg">
<g clip-path="url(#clip0_1160_93)" filter="url(#filter0_d_1160_93)">
<rect width="112" height="164" transform="matrix(-1 0 0 -1 135 189)" fill="#1F1F1F"/>
<path d="M59.5703 108.51V102.469H60.6953V108.51C60.6953 109.072 60.5801 109.547 60.3496 109.934C60.1191 110.32 59.8008 110.615 59.3945 110.818C58.9922 111.018 58.5293 111.117 58.0059 111.117C57.4824 111.117 57.0176 111.027 56.6113 110.848C56.2051 110.668 55.8867 110.395 55.6562 110.027C55.4258 109.66 55.3105 109.197 55.3105 108.639H56.4414C56.4414 108.998 56.5078 109.293 56.6406 109.523C56.7734 109.754 56.957 109.924 57.1914 110.033C57.4297 110.143 57.7012 110.197 58.0059 110.197C58.3027 110.197 58.5684 110.135 58.8027 110.01C59.041 109.881 59.2285 109.691 59.3652 109.441C59.502 109.188 59.5703 108.877 59.5703 108.51ZM67.6122 102.469H68.7372V108.24C68.7372 108.881 68.5946 109.414 68.3095 109.84C68.0243 110.266 67.6454 110.586 67.1727 110.801C66.704 111.012 66.1942 111.117 65.6434 111.117C65.0653 111.117 64.5419 111.012 64.0731 110.801C63.6083 110.586 63.2391 110.266 62.9657 109.84C62.6962 109.414 62.5614 108.881 62.5614 108.24V102.469H63.6805V108.24C63.6805 108.686 63.7626 109.053 63.9266 109.342C64.0907 109.631 64.3192 109.846 64.6122 109.986C64.9091 110.127 65.2528 110.197 65.6434 110.197C66.038 110.197 66.3817 110.127 66.6747 109.986C66.9716 109.846 67.202 109.631 67.3661 109.342C67.5302 109.053 67.6122 108.686 67.6122 108.24V102.469ZM71.7634 102.469V111H70.6326V102.469H71.7634ZM76.9138 102.469L73.3689 106.447L71.3767 108.516L71.1892 107.309L72.6892 105.656L75.5545 102.469H76.9138ZM75.824 111L72.6658 106.84L73.3396 105.943L77.1716 111H75.824ZM81.4401 102.469V111H80.3268V102.469H81.4401ZM84.1823 102.469V103.395H77.5905V102.469H84.1823ZM88.2573 103.225L85.4331 111H84.2788L87.5308 102.469H88.2749L88.2573 103.225ZM90.6245 111L87.7945 103.225L87.7769 102.469H88.521L91.7847 111H90.6245ZM90.478 107.842V108.768H85.6851V107.842H90.478ZM98.4672 110.08V111H93.9496V110.08H98.4672ZM94.1781 102.469V111H93.0473V102.469H94.1781ZM97.8695 106.137V107.057H93.9496V106.137H97.8695ZM98.4086 102.469V103.395H93.9496V102.469H98.4086ZM99.8411 110.426C99.8411 110.242 99.8977 110.088 100.011 109.963C100.128 109.834 100.296 109.77 100.515 109.77C100.734 109.77 100.9 109.834 101.013 109.963C101.13 110.088 101.189 110.242 101.189 110.426C101.189 110.605 101.13 110.758 101.013 110.883C100.9 111.008 100.734 111.07 100.515 111.07C100.296 111.07 100.128 111.008 100.011 110.883C99.8977 110.758 99.8411 110.605 99.8411 110.426Z" fill="white"/>
<g clip-path="url(#clip1_1160_93)">
<path d="M126.807 181.056L126.807 184.237C126.807 184.304 126.834 184.367 126.881 184.414C126.927 184.461 126.991 184.488 127.057 184.488C127.124 184.488 127.187 184.461 127.234 184.414C127.281 184.367 127.308 184.304 127.308 184.237L127.307 181.659L130.77 185.121C130.817 185.168 130.88 185.195 130.946 185.195C131.013 185.195 131.076 185.168 131.123 185.121C131.17 185.074 131.196 185.011 131.196 184.945C131.196 184.878 131.17 184.815 131.123 184.768L127.661 181.305L130.239 181.306C130.306 181.306 130.369 181.279 130.416 181.232C130.463 181.185 130.49 181.122 130.49 181.056C130.49 180.989 130.463 180.926 130.416 180.879C130.369 180.832 130.306 180.805 130.239 180.805L127.057 180.805C127.025 180.805 126.992 180.812 126.962 180.824C126.931 180.837 126.904 180.855 126.88 180.879C126.857 180.902 126.839 180.929 126.826 180.96C126.814 180.99 126.807 181.023 126.807 181.056Z" fill="white"/>
</g>
<g clip-path="url(#clip2_1160_93)">
<path d="M30.9464 180.805L27.7645 180.805C27.6981 180.805 27.6345 180.831 27.5876 180.878C27.5407 180.925 27.5143 180.989 27.5143 181.055C27.5143 181.121 27.5407 181.185 27.5876 181.232C27.6345 181.279 27.6981 181.305 27.7645 181.305L30.343 181.305L26.8806 184.767C26.8337 184.814 26.8073 184.878 26.8073 184.944C26.8073 185.01 26.8337 185.074 26.8806 185.121C26.9275 185.168 26.991 185.194 27.0573 185.194C27.1237 185.194 27.1872 185.168 27.2341 185.121L30.6965 181.658L30.6963 184.237C30.6963 184.303 30.7227 184.367 30.7696 184.414C30.8165 184.461 30.8801 184.487 30.9464 184.487C31.0128 184.487 31.0764 184.461 31.1233 184.414C31.1702 184.367 31.1966 184.303 31.1966 184.237L31.1966 181.055C31.1966 181.022 31.1901 180.99 31.1776 180.959C31.165 180.929 31.1466 180.901 31.1234 180.878C31.1001 180.855 31.0725 180.836 31.0422 180.824C31.0118 180.811 30.9793 180.805 30.9464 180.805Z" fill="white"/>
</g>
<g clip-path="url(#clip3_1160_93)">
<path d="M126.807 32.9445L126.807 29.7625C126.807 29.6962 126.834 29.6325 126.881 29.5856C126.927 29.5387 126.991 29.5124 127.057 29.5124C127.124 29.5124 127.187 29.5387 127.234 29.5856C127.281 29.6325 127.308 29.6962 127.308 29.7625L127.307 32.341L130.77 28.8786C130.817 28.8317 130.88 28.8054 130.946 28.8054C131.013 28.8054 131.076 28.8317 131.123 28.8786C131.17 28.9255 131.196 28.9891 131.196 29.0554C131.196 29.1217 131.17 29.1853 131.123 29.2322L127.661 32.6946L130.239 32.6943C130.306 32.6943 130.369 32.7207 130.416 32.7676C130.463 32.8145 130.49 32.8781 130.49 32.9445C130.49 33.0108 130.463 33.0744 130.416 33.1214C130.369 33.1683 130.306 33.1946 130.239 33.1946L127.057 33.1946C127.025 33.1946 126.992 33.1882 126.962 33.1756C126.931 33.1631 126.904 33.1446 126.88 33.1214C126.857 33.0982 126.839 33.0706 126.826 33.0402C126.814 33.0099 126.807 32.9773 126.807 32.9445Z" fill="white"/>
</g>
<g clip-path="url(#clip4_1160_93)">
<path d="M31.1928 32.9445L31.1928 29.7625C31.1928 29.6962 31.1664 29.6325 31.1195 29.5856C31.0726 29.5387 31.009 29.5124 30.9426 29.5124C30.8763 29.5124 30.8127 29.5387 30.7657 29.5856C30.7188 29.6325 30.6925 29.6962 30.6925 29.7625L30.6927 32.341L27.2303 28.8786C27.1834 28.8317 27.1198 28.8054 27.0535 28.8054C26.9872 28.8054 26.9236 28.8317 26.8768 28.8786C26.8299 28.9255 26.8035 28.9891 26.8035 29.0554C26.8035 29.1217 26.8299 29.1853 26.8768 29.2322L30.3391 32.6946L27.7606 32.6943C27.6943 32.6943 27.6307 32.7207 27.5838 32.7676C27.5369 32.8145 27.5105 32.8781 27.5105 32.9445C27.5105 33.0108 27.5369 33.0744 27.5838 33.1214C27.6307 33.1683 27.6943 33.1946 27.7606 33.1946L30.9426 33.1946C30.9755 33.1946 31.008 33.1882 31.0384 33.1756C31.0687 33.1631 31.0963 33.1446 31.1195 33.1214C31.1428 33.0982 31.1612 33.0706 31.1738 33.0402C31.1863 33.0099 31.1928 32.9773 31.1928 32.9445Z" fill="white"/>
</g>
</g>
<defs>
<filter id="filter0_d_1160_93" x="0" y="0" width="162" height="214" filterUnits="userSpaceOnUse" color-interpolation-filters="sRGB">
<feFlood flood-opacity="0" result="BackgroundImageFix"/>
<feColorMatrix in="SourceAlpha" type="matrix" values="0 0 0 0 0 0 0 0 0 0 0 0 0 0 0 0 0 0 127 0" result="hardAlpha"/>
<feOffset dx="2"/>
<feGaussianBlur stdDeviation="12.5"/>
<feComposite in2="hardAlpha" operator="out"/>
<feColorMatrix type="matrix" values="0 0 0 0 0 0 0 0 0 0 0 0 0 0 0 0 0 0 0.05 0"/>
<feBlend mode="normal" in2="BackgroundImageFix" result="effect1_dropShadow_1160_93"/>
<feBlend mode="normal" in="SourceGraphic" in2="effect1_dropShadow_1160_93" result="shape"/>
</filter>
<clipPath id="clip0_1160_93">
<rect width="112" height="164" fill="white" transform="matrix(-1 0 0 -1 135 189)"/>
</clipPath>
<clipPath id="clip1_1160_93">
<rect width="8" height="8" fill="white" transform="matrix(-0.707107 -0.707107 -0.707107 0.707107 134.657 183)"/>
</clipPath>
<clipPath id="clip2_1160_93">
<rect width="8" height="8" fill="white" transform="matrix(0.707107 -0.707107 -0.707107 -0.707107 29 188.656)"/>
</clipPath>
<clipPath id="clip3_1160_93">
<rect width="8" height="8" fill="white" transform="translate(134.657 31) rotate(135)"/>
</clipPath>
<clipPath id="clip4_1160_93">
<rect width="8" height="8" fill="white" transform="matrix(0.707107 0.707107 0.707107 -0.707107 23.3433 31)"/>
</clipPath>
</defs>
</svg>
