<svg width="162" height="214" viewBox="0 0 162 214" fill="none" xmlns="http://www.w3.org/2000/svg">
<g clip-path="url(#clip0_1160_43)" filter="url(#filter0_d_1160_43)">
<rect width="112" height="164" transform="matrix(-1 0 0 -1 135 189)" fill="#1F1F1F"/>
<path d="M55.5371 108.844C55.5371 108.645 55.5059 108.469 55.4434 108.316C55.3848 108.16 55.2793 108.02 55.127 107.895C54.9785 107.77 54.7715 107.65 54.5059 107.537C54.2441 107.424 53.9121 107.309 53.5098 107.191C53.0879 107.066 52.707 106.928 52.3672 106.775C52.0273 106.619 51.7363 106.441 51.4941 106.242C51.252 106.043 51.0664 105.814 50.9375 105.557C50.8086 105.299 50.7441 105.004 50.7441 104.672C50.7441 104.34 50.8125 104.033 50.9492 103.752C51.0859 103.471 51.2812 103.227 51.5352 103.02C51.793 102.809 52.0996 102.645 52.4551 102.527C52.8105 102.41 53.207 102.352 53.6445 102.352C54.2852 102.352 54.8281 102.475 55.2734 102.721C55.7227 102.963 56.0645 103.281 56.2988 103.676C56.5332 104.066 56.6504 104.484 56.6504 104.93H55.5254C55.5254 104.609 55.457 104.326 55.3203 104.08C55.1836 103.83 54.9766 103.635 54.6992 103.494C54.4219 103.35 54.0703 103.277 53.6445 103.277C53.2422 103.277 52.9102 103.338 52.6484 103.459C52.3867 103.58 52.1914 103.744 52.0625 103.951C51.9375 104.158 51.875 104.395 51.875 104.66C51.875 104.84 51.9121 105.004 51.9863 105.152C52.0645 105.297 52.1836 105.432 52.3438 105.557C52.5078 105.682 52.7148 105.797 52.9648 105.902C53.2188 106.008 53.5215 106.109 53.873 106.207C54.3574 106.344 54.7754 106.496 55.127 106.664C55.4785 106.832 55.7676 107.021 55.9941 107.232C56.2246 107.439 56.3945 107.676 56.5039 107.941C56.6172 108.203 56.6738 108.5 56.6738 108.832C56.6738 109.18 56.6035 109.494 56.4629 109.775C56.3223 110.057 56.1211 110.297 55.8594 110.496C55.5977 110.695 55.2832 110.85 54.916 110.959C54.5527 111.064 54.1465 111.117 53.6973 111.117C53.3027 111.117 52.9141 111.062 52.5312 110.953C52.1523 110.844 51.8066 110.68 51.4941 110.461C51.1855 110.242 50.9375 109.973 50.75 109.652C50.5664 109.328 50.4746 108.953 50.4746 108.527H51.5996C51.5996 108.82 51.6562 109.072 51.7695 109.283C51.8828 109.49 52.0371 109.662 52.2324 109.799C52.4316 109.936 52.6562 110.037 52.9062 110.104C53.1602 110.166 53.4238 110.197 53.6973 110.197C54.0918 110.197 54.4258 110.143 54.6992 110.033C54.9727 109.924 55.1797 109.768 55.3203 109.564C55.4648 109.361 55.5371 109.121 55.5371 108.844ZM61.3934 103.225L58.5692 111H57.4149L60.6669 102.469H61.411L61.3934 103.225ZM63.7606 111L60.9305 103.225L60.913 102.469H61.6571L64.9208 111H63.7606ZM63.6141 107.842V108.768H58.8212V107.842H63.6141ZM70.9587 102.469H72.0837V108.24C72.0837 108.881 71.9412 109.414 71.656 109.84C71.3709 110.266 70.992 110.586 70.5193 110.801C70.0505 111.012 69.5408 111.117 68.99 111.117C68.4119 111.117 67.8884 111.012 67.4197 110.801C66.9548 110.586 66.5857 110.266 66.3123 109.84C66.0427 109.414 65.908 108.881 65.908 108.24V102.469H67.0271V108.24C67.0271 108.686 67.1091 109.053 67.2732 109.342C67.4373 109.631 67.6658 109.846 67.9587 109.986C68.2556 110.127 68.5994 110.197 68.99 110.197C69.3845 110.197 69.7283 110.127 70.0212 109.986C70.3181 109.846 70.5486 109.631 70.7127 109.342C70.8767 109.053 70.9587 108.686 70.9587 108.24V102.469ZM76.2877 111H74.5065L74.5182 110.08H76.2877C76.8971 110.08 77.4049 109.953 77.8112 109.699C78.2174 109.441 78.5221 109.082 78.7252 108.621C78.9323 108.156 79.0358 107.613 79.0358 106.992V106.471C79.0358 105.982 78.9772 105.549 78.86 105.17C78.7428 104.787 78.5709 104.465 78.3444 104.203C78.1178 103.938 77.8405 103.736 77.5123 103.6C77.1881 103.463 76.8151 103.395 76.3932 103.395H74.4713V102.469H76.3932C76.9518 102.469 77.4616 102.562 77.9225 102.75C78.3834 102.934 78.7799 103.201 79.112 103.553C79.4479 103.9 79.7057 104.322 79.8854 104.818C80.0651 105.311 80.1549 105.865 80.1549 106.482V106.992C80.1549 107.609 80.0651 108.166 79.8854 108.662C79.7057 109.154 79.4459 109.574 79.1061 109.922C78.7702 110.27 78.3639 110.537 77.8873 110.725C77.4147 110.908 76.8815 111 76.2877 111ZM75.11 102.469V111H73.9791V102.469H75.11ZM85.0034 103.225L82.1792 111H81.0249L84.2769 102.469H85.021L85.0034 103.225ZM87.3706 111L84.5405 103.225L84.523 102.469H85.2671L88.5308 111H87.3706ZM87.2241 107.842V108.768H82.4312V107.842H87.2241ZM92.102 111H90.3207L90.3324 110.08H92.102C92.7113 110.08 93.2191 109.953 93.6254 109.699C94.0316 109.441 94.3363 109.082 94.5395 108.621C94.7465 108.156 94.85 107.613 94.85 106.992V106.471C94.85 105.982 94.7914 105.549 94.6742 105.17C94.557 104.787 94.3852 104.465 94.1586 104.203C93.932 103.938 93.6547 103.736 93.3266 103.6C93.0023 103.463 92.6293 103.395 92.2074 103.395H90.2855V102.469H92.2074C92.766 102.469 93.2758 102.562 93.7367 102.75C94.1977 102.934 94.5941 103.201 94.9262 103.553C95.2621 103.9 95.5199 104.322 95.6996 104.818C95.8793 105.311 95.9691 105.865 95.9691 106.482V106.992C95.9691 107.609 95.8793 108.166 95.6996 108.662C95.5199 109.154 95.2602 109.574 94.9203 109.922C94.5844 110.27 94.1781 110.537 93.7016 110.725C93.2289 110.908 92.6957 111 92.102 111ZM90.9242 102.469V111H89.7934V102.469H90.9242ZM103.208 110.08V111H98.6907V110.08H103.208ZM98.9192 102.469V111H97.7884V102.469H98.9192ZM102.611 106.137V107.057H98.6907V106.137H102.611ZM103.15 102.469V103.395H98.6907V102.469H103.15ZM104.582 110.426C104.582 110.242 104.639 110.088 104.752 109.963C104.869 109.834 105.037 109.77 105.256 109.77C105.475 109.77 105.641 109.834 105.754 109.963C105.871 110.088 105.93 110.242 105.93 110.426C105.93 110.605 105.871 110.758 105.754 110.883C105.641 111.008 105.475 111.07 105.256 111.07C105.037 111.07 104.869 111.008 104.752 110.883C104.639 110.758 104.582 110.605 104.582 110.426Z" fill="white"/>
<g clip-path="url(#clip1_1160_43)">
<path d="M126.807 181.056L126.807 184.237C126.807 184.304 126.834 184.367 126.881 184.414C126.927 184.461 126.991 184.488 127.057 184.488C127.124 184.488 127.187 184.461 127.234 184.414C127.281 184.367 127.308 184.304 127.308 184.237L127.307 181.659L130.77 185.121C130.817 185.168 130.88 185.195 130.946 185.195C131.013 185.195 131.076 185.168 131.123 185.121C131.17 185.074 131.196 185.011 131.196 184.945C131.196 184.878 131.17 184.815 131.123 184.768L127.661 181.305L130.239 181.306C130.306 181.306 130.369 181.279 130.416 181.232C130.463 181.185 130.49 181.122 130.49 181.056C130.49 180.989 130.463 180.926 130.416 180.879C130.369 180.832 130.306 180.805 130.239 180.805L127.057 180.805C127.025 180.805 126.992 180.812 126.962 180.824C126.931 180.837 126.904 180.855 126.88 180.879C126.857 180.902 126.839 180.929 126.826 180.96C126.814 180.99 126.807 181.023 126.807 181.056Z" fill="white"/>
</g>
<g clip-path="url(#clip2_1160_43)">
<path d="M30.9464 180.805L27.7645 180.805C27.6981 180.805 27.6345 180.831 27.5876 180.878C27.5407 180.925 27.5143 180.989 27.5143 181.055C27.5143 181.121 27.5407 181.185 27.5876 181.232C27.6345 181.279 27.6981 181.305 27.7645 181.305L30.343 181.305L26.8806 184.767C26.8337 184.814 26.8073 184.878 26.8073 184.944C26.8073 185.01 26.8337 185.074 26.8806 185.121C26.9275 185.168 26.991 185.194 27.0573 185.194C27.1237 185.194 27.1872 185.168 27.2341 185.121L30.6965 181.658L30.6963 184.237C30.6963 184.303 30.7227 184.367 30.7696 184.414C30.8165 184.461 30.8801 184.487 30.9464 184.487C31.0128 184.487 31.0764 184.461 31.1233 184.414C31.1702 184.367 31.1966 184.303 31.1966 184.237L31.1966 181.055C31.1966 181.022 31.1901 180.99 31.1776 180.959C31.165 180.929 31.1466 180.901 31.1234 180.878C31.1001 180.855 31.0725 180.836 31.0422 180.824C31.0118 180.811 30.9793 180.805 30.9464 180.805Z" fill="white"/>
</g>
<g clip-path="url(#clip3_1160_43)">
<path d="M126.807 32.9445L126.807 29.7625C126.807 29.6962 126.834 29.6325 126.881 29.5856C126.927 29.5387 126.991 29.5124 127.057 29.5124C127.124 29.5124 127.187 29.5387 127.234 29.5856C127.281 29.6325 127.308 29.6962 127.308 29.7625L127.307 32.341L130.77 28.8786C130.817 28.8317 130.88 28.8054 130.946 28.8054C131.013 28.8054 131.076 28.8317 131.123 28.8786C131.17 28.9255 131.196 28.9891 131.196 29.0554C131.196 29.1217 131.17 29.1853 131.123 29.2322L127.661 32.6946L130.239 32.6943C130.306 32.6943 130.369 32.7207 130.416 32.7676C130.463 32.8145 130.49 32.8781 130.49 32.9445C130.49 33.0108 130.463 33.0744 130.416 33.1214C130.369 33.1683 130.306 33.1946 130.239 33.1946L127.057 33.1946C127.025 33.1946 126.992 33.1882 126.962 33.1756C126.931 33.1631 126.904 33.1446 126.88 33.1214C126.857 33.0982 126.839 33.0706 126.826 33.0402C126.814 33.0099 126.807 32.9773 126.807 32.9445Z" fill="white"/>
</g>
<g clip-path="url(#clip4_1160_43)">
<path d="M31.1928 32.9445L31.1928 29.7625C31.1928 29.6962 31.1664 29.6325 31.1195 29.5856C31.0726 29.5387 31.009 29.5124 30.9426 29.5124C30.8763 29.5124 30.8127 29.5387 30.7657 29.5856C30.7188 29.6325 30.6925 29.6962 30.6925 29.7625L30.6927 32.341L27.2303 28.8786C27.1834 28.8317 27.1198 28.8054 27.0535 28.8054C26.9872 28.8054 26.9236 28.8317 26.8768 28.8786C26.8299 28.9255 26.8035 28.9891 26.8035 29.0554C26.8035 29.1217 26.8299 29.1853 26.8768 29.2322L30.3391 32.6946L27.7606 32.6943C27.6943 32.6943 27.6307 32.7207 27.5838 32.7676C27.5369 32.8145 27.5105 32.8781 27.5105 32.9445C27.5105 33.0108 27.5369 33.0744 27.5838 33.1214C27.6307 33.1683 27.6943 33.1946 27.7606 33.1946L30.9426 33.1946C30.9755 33.1946 31.008 33.1882 31.0384 33.1756C31.0687 33.1631 31.0963 33.1446 31.1195 33.1214C31.1428 33.0982 31.1612 33.0706 31.1738 33.0402C31.1863 33.0099 31.1928 32.9773 31.1928 32.9445Z" fill="white"/>
</g>
</g>
<defs>
<filter id="filter0_d_1160_43" x="0" y="0" width="162" height="214" filterUnits="userSpaceOnUse" color-interpolation-filters="sRGB">
<feFlood flood-opacity="0" result="BackgroundImageFix"/>
<feColorMatrix in="SourceAlpha" type="matrix" values="0 0 0 0 0 0 0 0 0 0 0 0 0 0 0 0 0 0 127 0" result="hardAlpha"/>
<feOffset dx="2"/>
<feGaussianBlur stdDeviation="12.5"/>
<feComposite in2="hardAlpha" operator="out"/>
<feColorMatrix type="matrix" values="0 0 0 0 0 0 0 0 0 0 0 0 0 0 0 0 0 0 0.05 0"/>
<feBlend mode="normal" in2="BackgroundImageFix" result="effect1_dropShadow_1160_43"/>
<feBlend mode="normal" in="SourceGraphic" in2="effect1_dropShadow_1160_43" result="shape"/>
</filter>
<clipPath id="clip0_1160_43">
<rect width="112" height="164" fill="white" transform="matrix(-1 0 0 -1 135 189)"/>
</clipPath>
<clipPath id="clip1_1160_43">
<rect width="8" height="8" fill="white" transform="matrix(-0.707107 -0.707107 -0.707107 0.707107 134.657 183)"/>
</clipPath>
<clipPath id="clip2_1160_43">
<rect width="8" height="8" fill="white" transform="matrix(0.707107 -0.707107 -0.707107 -0.707107 29 188.656)"/>
</clipPath>
<clipPath id="clip3_1160_43">
<rect width="8" height="8" fill="white" transform="translate(134.657 31) rotate(135)"/>
</clipPath>
<clipPath id="clip4_1160_43">
<rect width="8" height="8" fill="white" transform="matrix(0.707107 0.707107 0.707107 -0.707107 23.3433 31)"/>
</clipPath>
</defs>
</svg>
