<svg width="162" height="214" viewBox="0 0 162 214" fill="none" xmlns="http://www.w3.org/2000/svg">
<g clip-path="url(#clip0_1160_133)" filter="url(#filter0_d_1160_133)">
<rect width="112" height="164" transform="matrix(-1 0 0 -1 135 189)" fill="#1F1F1F"/>
<path d="M65.2949 106.752V109.875C65.1895 110.031 65.0215 110.207 64.791 110.402C64.5605 110.594 64.2422 110.762 63.8359 110.906C63.4336 111.047 62.9141 111.117 62.2773 111.117C61.7578 111.117 61.2793 111.027 60.8418 110.848C60.4082 110.664 60.0312 110.398 59.7109 110.051C59.3945 109.699 59.1484 109.273 58.9727 108.773C58.8008 108.27 58.7148 107.699 58.7148 107.062V106.4C58.7148 105.764 58.7891 105.195 58.9375 104.695C59.0898 104.195 59.3125 103.771 59.6055 103.424C59.8984 103.072 60.2578 102.807 60.6836 102.627C61.1094 102.443 61.5977 102.352 62.1484 102.352C62.8008 102.352 63.3457 102.465 63.7832 102.691C64.2246 102.914 64.5684 103.223 64.8145 103.617C65.0645 104.012 65.2246 104.461 65.2949 104.965H64.1641C64.1133 104.656 64.0117 104.375 63.8594 104.121C63.7109 103.867 63.498 103.664 63.2207 103.512C62.9434 103.355 62.5859 103.277 62.1484 103.277C61.7539 103.277 61.4121 103.35 61.123 103.494C60.834 103.639 60.5957 103.846 60.4082 104.115C60.2207 104.385 60.0801 104.711 59.9863 105.094C59.8965 105.477 59.8516 105.908 59.8516 106.389V107.062C59.8516 107.555 59.9082 107.994 60.0215 108.381C60.1387 108.768 60.3047 109.098 60.5195 109.371C60.7344 109.641 60.9902 109.846 61.2871 109.986C61.5879 110.127 61.9199 110.197 62.2832 110.197C62.6855 110.197 63.0117 110.164 63.2617 110.098C63.5117 110.027 63.707 109.945 63.8477 109.852C63.9883 109.754 64.0957 109.662 64.1699 109.576V107.666H62.1953V106.752H65.2949ZM72.1708 102.469H73.2958V108.24C73.2958 108.881 73.1532 109.414 72.868 109.84C72.5829 110.266 72.204 110.586 71.7313 110.801C71.2626 111.012 70.7528 111.117 70.202 111.117C69.6239 111.117 69.1005 111.012 68.6317 110.801C68.1669 110.586 67.7977 110.266 67.5243 109.84C67.2548 109.414 67.12 108.881 67.12 108.24V102.469H68.2391V108.24C68.2391 108.686 68.3212 109.053 68.4852 109.342C68.6493 109.631 68.8778 109.846 69.1708 109.986C69.4677 110.127 69.8114 110.197 70.202 110.197C70.5966 110.197 70.9403 110.127 71.2333 109.986C71.5302 109.846 71.7606 109.631 71.9247 109.342C72.0887 109.053 72.1708 108.686 72.1708 108.24V102.469ZM79.738 108.844C79.738 108.645 79.7068 108.469 79.6443 108.316C79.5857 108.16 79.4802 108.02 79.3279 107.895C79.1795 107.77 78.9724 107.65 78.7068 107.537C78.4451 107.424 78.113 107.309 77.7107 107.191C77.2888 107.066 76.908 106.928 76.5681 106.775C76.2283 106.619 75.9373 106.441 75.6951 106.242C75.4529 106.043 75.2673 105.814 75.1384 105.557C75.0095 105.299 74.9451 105.004 74.9451 104.672C74.9451 104.34 75.0134 104.033 75.1502 103.752C75.2869 103.471 75.4822 103.227 75.7361 103.02C75.9939 102.809 76.3005 102.645 76.656 102.527C77.0115 102.41 77.408 102.352 77.8455 102.352C78.4861 102.352 79.0291 102.475 79.4744 102.721C79.9236 102.963 80.2654 103.281 80.4998 103.676C80.7341 104.066 80.8513 104.484 80.8513 104.93H79.7263C79.7263 104.609 79.658 104.326 79.5212 104.08C79.3845 103.83 79.1775 103.635 78.9002 103.494C78.6228 103.35 78.2712 103.277 77.8455 103.277C77.4431 103.277 77.1111 103.338 76.8494 103.459C76.5877 103.58 76.3923 103.744 76.2634 103.951C76.1384 104.158 76.0759 104.395 76.0759 104.66C76.0759 104.84 76.113 105.004 76.1873 105.152C76.2654 105.297 76.3845 105.432 76.5447 105.557C76.7087 105.682 76.9158 105.797 77.1658 105.902C77.4197 106.008 77.7224 106.109 78.074 106.207C78.5584 106.344 78.9763 106.496 79.3279 106.664C79.6795 106.832 79.9685 107.021 80.1951 107.232C80.4255 107.439 80.5955 107.676 80.7048 107.941C80.8181 108.203 80.8748 108.5 80.8748 108.832C80.8748 109.18 80.8045 109.494 80.6638 109.775C80.5232 110.057 80.322 110.297 80.0603 110.496C79.7986 110.695 79.4841 110.85 79.117 110.959C78.7537 111.064 78.3474 111.117 77.8982 111.117C77.5037 111.117 77.115 111.062 76.7322 110.953C76.3533 110.844 76.0076 110.68 75.6951 110.461C75.3865 110.242 75.1384 109.973 74.9509 109.652C74.7673 109.328 74.6755 108.953 74.6755 108.527H75.8005C75.8005 108.82 75.8572 109.072 75.9705 109.283C76.0837 109.49 76.238 109.662 76.4334 109.799C76.6326 109.936 76.8572 110.037 77.1072 110.104C77.3611 110.166 77.6248 110.197 77.8982 110.197C78.2927 110.197 78.6267 110.143 78.9002 110.033C79.1736 109.924 79.3806 109.768 79.5212 109.564C79.6658 109.361 79.738 109.121 79.738 108.844ZM85.5885 102.469V111H84.4752V102.469H85.5885ZM88.3307 102.469V103.395H81.7389V102.469H88.3307ZM96.1206 106.465V107.004C96.1206 107.645 96.0405 108.219 95.8804 108.727C95.7202 109.234 95.4898 109.666 95.189 110.021C94.8882 110.377 94.5269 110.648 94.105 110.836C93.687 111.023 93.2183 111.117 92.6987 111.117C92.1948 111.117 91.732 111.023 91.3101 110.836C90.8921 110.648 90.5288 110.377 90.2202 110.021C89.9155 109.666 89.6792 109.234 89.5112 108.727C89.3433 108.219 89.2593 107.645 89.2593 107.004V106.465C89.2593 105.824 89.3413 105.252 89.5054 104.748C89.6734 104.24 89.9097 103.809 90.2144 103.453C90.5191 103.094 90.8804 102.82 91.2984 102.633C91.7202 102.445 92.1831 102.352 92.687 102.352C93.2066 102.352 93.6753 102.445 94.0933 102.633C94.5152 102.82 94.8765 103.094 95.1773 103.453C95.482 103.809 95.7144 104.24 95.8745 104.748C96.0386 105.252 96.1206 105.824 96.1206 106.465ZM95.0015 107.004V106.453C95.0015 105.945 94.9487 105.496 94.8433 105.105C94.7417 104.715 94.5913 104.387 94.3921 104.121C94.1929 103.855 93.9487 103.654 93.6597 103.518C93.3745 103.381 93.0503 103.312 92.687 103.312C92.3355 103.312 92.0171 103.381 91.732 103.518C91.4507 103.654 91.2085 103.855 91.0054 104.121C90.8062 104.387 90.6519 104.715 90.5425 105.105C90.4331 105.496 90.3784 105.945 90.3784 106.453V107.004C90.3784 107.516 90.4331 107.969 90.5425 108.363C90.6519 108.754 90.8081 109.084 91.0112 109.354C91.2183 109.619 91.4624 109.82 91.7437 109.957C92.0288 110.094 92.3472 110.162 92.6987 110.162C93.0659 110.162 93.3921 110.094 93.6773 109.957C93.9624 109.82 94.2027 109.619 94.398 109.354C94.5972 109.084 94.7476 108.754 94.8491 108.363C94.9507 107.969 95.0015 107.516 95.0015 107.004ZM97.1898 110.426C97.1898 110.242 97.2465 110.088 97.3598 109.963C97.477 109.834 97.6449 109.77 97.8637 109.77C98.0824 109.77 98.2484 109.834 98.3617 109.963C98.4789 110.088 98.5375 110.242 98.5375 110.426C98.5375 110.605 98.4789 110.758 98.3617 110.883C98.2484 111.008 98.0824 111.07 97.8637 111.07C97.6449 111.07 97.477 111.008 97.3598 110.883C97.2465 110.758 97.1898 110.605 97.1898 110.426Z" fill="white"/>
<g clip-path="url(#clip1_1160_133)">
<path d="M126.807 181.056L126.807 184.237C126.807 184.304 126.834 184.367 126.881 184.414C126.927 184.461 126.991 184.488 127.057 184.488C127.124 184.488 127.187 184.461 127.234 184.414C127.281 184.367 127.308 184.304 127.308 184.237L127.307 181.659L130.77 185.121C130.817 185.168 130.88 185.195 130.946 185.195C131.013 185.195 131.076 185.168 131.123 185.121C131.17 185.074 131.196 185.011 131.196 184.945C131.196 184.878 131.17 184.815 131.123 184.768L127.661 181.305L130.239 181.306C130.306 181.306 130.369 181.279 130.416 181.232C130.463 181.185 130.49 181.122 130.49 181.056C130.49 180.989 130.463 180.926 130.416 180.879C130.369 180.832 130.306 180.805 130.239 180.805L127.057 180.805C127.025 180.805 126.992 180.812 126.962 180.824C126.931 180.837 126.904 180.855 126.88 180.879C126.857 180.902 126.839 180.929 126.826 180.96C126.814 180.99 126.807 181.023 126.807 181.056Z" fill="white"/>
</g>
<g clip-path="url(#clip2_1160_133)">
<path d="M30.9464 180.805L27.7645 180.805C27.6981 180.805 27.6345 180.831 27.5876 180.878C27.5407 180.925 27.5143 180.989 27.5143 181.055C27.5143 181.121 27.5407 181.185 27.5876 181.232C27.6345 181.279 27.6981 181.305 27.7645 181.305L30.343 181.305L26.8806 184.767C26.8337 184.814 26.8073 184.878 26.8073 184.944C26.8073 185.01 26.8337 185.074 26.8806 185.121C26.9275 185.168 26.991 185.194 27.0573 185.194C27.1237 185.194 27.1872 185.168 27.2341 185.121L30.6965 181.658L30.6963 184.237C30.6963 184.303 30.7227 184.367 30.7696 184.414C30.8165 184.461 30.8801 184.487 30.9464 184.487C31.0128 184.487 31.0764 184.461 31.1233 184.414C31.1702 184.367 31.1966 184.303 31.1966 184.237L31.1966 181.055C31.1966 181.022 31.1901 180.99 31.1776 180.959C31.165 180.929 31.1466 180.901 31.1234 180.878C31.1001 180.855 31.0725 180.836 31.0422 180.824C31.0118 180.811 30.9793 180.805 30.9464 180.805Z" fill="white"/>
</g>
<g clip-path="url(#clip3_1160_133)">
<path d="M126.807 32.9445L126.807 29.7625C126.807 29.6962 126.834 29.6325 126.881 29.5856C126.927 29.5387 126.991 29.5124 127.057 29.5124C127.124 29.5124 127.187 29.5387 127.234 29.5856C127.281 29.6325 127.308 29.6962 127.308 29.7625L127.307 32.341L130.77 28.8786C130.817 28.8317 130.88 28.8054 130.946 28.8054C131.013 28.8054 131.076 28.8317 131.123 28.8786C131.17 28.9255 131.196 28.9891 131.196 29.0554C131.196 29.1217 131.17 29.1853 131.123 29.2322L127.661 32.6946L130.239 32.6943C130.306 32.6943 130.369 32.7207 130.416 32.7676C130.463 32.8145 130.49 32.8781 130.49 32.9445C130.49 33.0108 130.463 33.0744 130.416 33.1214C130.369 33.1683 130.306 33.1946 130.239 33.1946L127.057 33.1946C127.025 33.1946 126.992 33.1882 126.962 33.1756C126.931 33.1631 126.904 33.1446 126.88 33.1214C126.857 33.0982 126.839 33.0706 126.826 33.0402C126.814 33.0099 126.807 32.9773 126.807 32.9445Z" fill="white"/>
</g>
<g clip-path="url(#clip4_1160_133)">
<path d="M31.1928 32.9445L31.1928 29.7625C31.1928 29.6962 31.1664 29.6325 31.1195 29.5856C31.0726 29.5387 31.009 29.5124 30.9426 29.5124C30.8763 29.5124 30.8127 29.5387 30.7657 29.5856C30.7188 29.6325 30.6925 29.6962 30.6925 29.7625L30.6927 32.341L27.2303 28.8786C27.1834 28.8317 27.1198 28.8054 27.0535 28.8054C26.9872 28.8054 26.9236 28.8317 26.8768 28.8786C26.8299 28.9255 26.8035 28.9891 26.8035 29.0554C26.8035 29.1217 26.8299 29.1853 26.8768 29.2322L30.3391 32.6946L27.7606 32.6943C27.6943 32.6943 27.6307 32.7207 27.5838 32.7676C27.5369 32.8145 27.5105 32.8781 27.5105 32.9445C27.5105 33.0108 27.5369 33.0744 27.5838 33.1214C27.6307 33.1683 27.6943 33.1946 27.7606 33.1946L30.9426 33.1946C30.9755 33.1946 31.008 33.1882 31.0384 33.1756C31.0687 33.1631 31.0963 33.1446 31.1195 33.1214C31.1428 33.0982 31.1612 33.0706 31.1738 33.0402C31.1863 33.0099 31.1928 32.9773 31.1928 32.9445Z" fill="white"/>
</g>
</g>
<defs>
<filter id="filter0_d_1160_133" x="0" y="0" width="162" height="214" filterUnits="userSpaceOnUse" color-interpolation-filters="sRGB">
<feFlood flood-opacity="0" result="BackgroundImageFix"/>
<feColorMatrix in="SourceAlpha" type="matrix" values="0 0 0 0 0 0 0 0 0 0 0 0 0 0 0 0 0 0 127 0" result="hardAlpha"/>
<feOffset dx="2"/>
<feGaussianBlur stdDeviation="12.5"/>
<feComposite in2="hardAlpha" operator="out"/>
<feColorMatrix type="matrix" values="0 0 0 0 0 0 0 0 0 0 0 0 0 0 0 0 0 0 0.05 0"/>
<feBlend mode="normal" in2="BackgroundImageFix" result="effect1_dropShadow_1160_133"/>
<feBlend mode="normal" in="SourceGraphic" in2="effect1_dropShadow_1160_133" result="shape"/>
</filter>
<clipPath id="clip0_1160_133">
<rect width="112" height="164" fill="white" transform="matrix(-1 0 0 -1 135 189)"/>
</clipPath>
<clipPath id="clip1_1160_133">
<rect width="8" height="8" fill="white" transform="matrix(-0.707107 -0.707107 -0.707107 0.707107 134.657 183)"/>
</clipPath>
<clipPath id="clip2_1160_133">
<rect width="8" height="8" fill="white" transform="matrix(0.707107 -0.707107 -0.707107 -0.707107 29 188.656)"/>
</clipPath>
<clipPath id="clip3_1160_133">
<rect width="8" height="8" fill="white" transform="translate(134.657 31) rotate(135)"/>
</clipPath>
<clipPath id="clip4_1160_133">
<rect width="8" height="8" fill="white" transform="matrix(0.707107 0.707107 0.707107 -0.707107 23.3433 31)"/>
</clipPath>
</defs>
</svg>
