<svg width="162" height="214" viewBox="0 0 162 214" fill="none" xmlns="http://www.w3.org/2000/svg">
<g clip-path="url(#clip0_1160_123)" filter="url(#filter0_d_1160_123)">
<rect width="112" height="164" transform="matrix(-1 0 0 -1 135 189)" fill="#1F1F1F"/>
<path d="M47.3828 102.469L49.5977 106.752L51.8184 102.469H53.1016L50.1602 107.812V111H49.0293V107.812L46.0879 102.469H47.3828ZM58.6356 102.469H59.7606V108.24C59.7606 108.881 59.618 109.414 59.3329 109.84C59.0477 110.266 58.6688 110.586 58.1962 110.801C57.7274 111.012 57.2177 111.117 56.6669 111.117C56.0887 111.117 55.5653 111.012 55.0966 110.801C54.6317 110.586 54.2626 110.266 53.9891 109.84C53.7196 109.414 53.5848 108.881 53.5848 108.24V102.469H54.704V108.24C54.704 108.686 54.786 109.053 54.9501 109.342C55.1141 109.631 55.3427 109.846 55.6356 109.986C55.9325 110.127 56.2762 110.197 56.6669 110.197C57.0614 110.197 57.4052 110.127 57.6981 109.986C57.995 109.846 58.2255 109.631 58.3895 109.342C58.5536 109.053 58.6356 108.686 58.6356 108.24V102.469ZM64.6853 103.225L61.8611 111H60.7068L63.9587 102.469H64.7029L64.6853 103.225ZM67.0525 111L64.2224 103.225L64.2048 102.469H64.949L68.2127 111H67.0525ZM66.906 107.842V108.768H62.113V107.842H66.906ZM76.0377 102.469V111H74.901L70.6061 104.42V111H69.4752V102.469H70.6061L74.9186 109.066V102.469H76.0377ZM79.2925 102.469V111H78.1616V102.469H79.2925ZM82.8667 106.307V107.232H79.0464V106.307H82.8667ZM83.4468 102.469V103.395H79.0464V102.469H83.4468ZM87.0766 103.225L84.2523 111H83.098L86.35 102.469H87.0941L87.0766 103.225ZM89.4437 111L86.6137 103.225L86.5961 102.469H87.3402L90.6039 111H89.4437ZM89.2973 107.842V108.768H84.5043V107.842H89.2973ZM98.429 102.469V111H97.2923L92.9973 104.42V111H91.8665V102.469H92.9973L97.3098 109.066V102.469H98.429ZM106.858 106.752V109.875C106.752 110.031 106.584 110.207 106.354 110.402C106.123 110.594 105.805 110.762 105.399 110.906C104.996 111.047 104.477 111.117 103.84 111.117C103.32 111.117 102.842 111.027 102.404 110.848C101.971 110.664 101.594 110.398 101.274 110.051C100.957 109.699 100.711 109.273 100.535 108.773C100.363 108.27 100.278 107.699 100.278 107.062V106.4C100.278 105.764 100.352 105.195 100.5 104.695C100.653 104.195 100.875 103.771 101.168 103.424C101.461 103.072 101.82 102.807 102.246 102.627C102.672 102.443 103.16 102.352 103.711 102.352C104.363 102.352 104.908 102.465 105.346 102.691C105.787 102.914 106.131 103.223 106.377 103.617C106.627 104.012 106.787 104.461 106.858 104.965H105.727C105.676 104.656 105.574 104.375 105.422 104.121C105.274 103.867 105.061 103.664 104.783 103.512C104.506 103.355 104.149 103.277 103.711 103.277C103.317 103.277 102.975 103.35 102.686 103.494C102.397 103.639 102.158 103.846 101.971 104.115C101.783 104.385 101.643 104.711 101.549 105.094C101.459 105.477 101.414 105.908 101.414 106.389V107.062C101.414 107.555 101.471 107.994 101.584 108.381C101.701 108.768 101.867 109.098 102.082 109.371C102.297 109.641 102.553 109.846 102.85 109.986C103.151 110.127 103.483 110.197 103.846 110.197C104.248 110.197 104.574 110.164 104.824 110.098C105.074 110.027 105.27 109.945 105.41 109.852C105.551 109.754 105.658 109.662 105.733 109.576V107.666H103.758V106.752H106.858ZM108.706 110.426C108.706 110.242 108.763 110.088 108.876 109.963C108.993 109.834 109.161 109.77 109.38 109.77C109.599 109.77 109.765 109.834 109.878 109.963C109.995 110.088 110.054 110.242 110.054 110.426C110.054 110.605 109.995 110.758 109.878 110.883C109.765 111.008 109.599 111.07 109.38 111.07C109.161 111.07 108.993 111.008 108.876 110.883C108.763 110.758 108.706 110.605 108.706 110.426Z" fill="white"/>
<g clip-path="url(#clip1_1160_123)">
<path d="M126.807 181.056L126.807 184.237C126.807 184.304 126.834 184.367 126.881 184.414C126.927 184.461 126.991 184.488 127.057 184.488C127.124 184.488 127.187 184.461 127.234 184.414C127.281 184.367 127.308 184.304 127.308 184.237L127.307 181.659L130.77 185.121C130.817 185.168 130.88 185.195 130.946 185.195C131.013 185.195 131.076 185.168 131.123 185.121C131.17 185.074 131.196 185.011 131.196 184.945C131.196 184.878 131.17 184.815 131.123 184.768L127.661 181.305L130.239 181.306C130.306 181.306 130.369 181.279 130.416 181.232C130.463 181.185 130.49 181.122 130.49 181.056C130.49 180.989 130.463 180.926 130.416 180.879C130.369 180.832 130.306 180.805 130.239 180.805L127.057 180.805C127.025 180.805 126.992 180.812 126.962 180.824C126.931 180.837 126.904 180.855 126.88 180.879C126.857 180.902 126.839 180.929 126.826 180.96C126.814 180.99 126.807 181.023 126.807 181.056Z" fill="white"/>
</g>
<g clip-path="url(#clip2_1160_123)">
<path d="M30.9464 180.805L27.7645 180.805C27.6981 180.805 27.6345 180.831 27.5876 180.878C27.5407 180.925 27.5143 180.989 27.5143 181.055C27.5143 181.121 27.5407 181.185 27.5876 181.232C27.6345 181.279 27.6981 181.305 27.7645 181.305L30.343 181.305L26.8806 184.767C26.8337 184.814 26.8073 184.878 26.8073 184.944C26.8073 185.01 26.8337 185.074 26.8806 185.121C26.9275 185.168 26.991 185.194 27.0573 185.194C27.1237 185.194 27.1872 185.168 27.2341 185.121L30.6965 181.658L30.6963 184.237C30.6963 184.303 30.7227 184.367 30.7696 184.414C30.8165 184.461 30.8801 184.487 30.9464 184.487C31.0128 184.487 31.0764 184.461 31.1233 184.414C31.1702 184.367 31.1966 184.303 31.1966 184.237L31.1966 181.055C31.1966 181.022 31.1901 180.99 31.1776 180.959C31.165 180.929 31.1466 180.901 31.1234 180.878C31.1001 180.855 31.0725 180.836 31.0422 180.824C31.0118 180.811 30.9793 180.805 30.9464 180.805Z" fill="white"/>
</g>
<g clip-path="url(#clip3_1160_123)">
<path d="M126.807 32.9445L126.807 29.7625C126.807 29.6962 126.834 29.6325 126.881 29.5856C126.927 29.5387 126.991 29.5124 127.057 29.5124C127.124 29.5124 127.187 29.5387 127.234 29.5856C127.281 29.6325 127.308 29.6962 127.308 29.7625L127.307 32.341L130.77 28.8786C130.817 28.8317 130.88 28.8054 130.946 28.8054C131.013 28.8054 131.076 28.8317 131.123 28.8786C131.17 28.9255 131.196 28.9891 131.196 29.0554C131.196 29.1217 131.17 29.1853 131.123 29.2322L127.661 32.6946L130.239 32.6943C130.306 32.6943 130.369 32.7207 130.416 32.7676C130.463 32.8145 130.49 32.8781 130.49 32.9445C130.49 33.0108 130.463 33.0744 130.416 33.1214C130.369 33.1683 130.306 33.1946 130.239 33.1946L127.057 33.1946C127.025 33.1946 126.992 33.1882 126.962 33.1756C126.931 33.1631 126.904 33.1446 126.88 33.1214C126.857 33.0982 126.839 33.0706 126.826 33.0402C126.814 33.0099 126.807 32.9773 126.807 32.9445Z" fill="white"/>
</g>
<g clip-path="url(#clip4_1160_123)">
<path d="M31.1928 32.9445L31.1928 29.7625C31.1928 29.6962 31.1664 29.6325 31.1195 29.5856C31.0726 29.5387 31.009 29.5124 30.9426 29.5124C30.8763 29.5124 30.8127 29.5387 30.7657 29.5856C30.7188 29.6325 30.6925 29.6962 30.6925 29.7625L30.6927 32.341L27.2303 28.8786C27.1834 28.8317 27.1198 28.8054 27.0535 28.8054C26.9872 28.8054 26.9236 28.8317 26.8768 28.8786C26.8299 28.9255 26.8035 28.9891 26.8035 29.0554C26.8035 29.1217 26.8299 29.1853 26.8768 29.2322L30.3391 32.6946L27.7606 32.6943C27.6943 32.6943 27.6307 32.7207 27.5838 32.7676C27.5369 32.8145 27.5105 32.8781 27.5105 32.9445C27.5105 33.0108 27.5369 33.0744 27.5838 33.1214C27.6307 33.1683 27.6943 33.1946 27.7606 33.1946L30.9426 33.1946C30.9755 33.1946 31.008 33.1882 31.0384 33.1756C31.0687 33.1631 31.0963 33.1446 31.1195 33.1214C31.1428 33.0982 31.1612 33.0706 31.1738 33.0402C31.1863 33.0099 31.1928 32.9773 31.1928 32.9445Z" fill="white"/>
</g>
</g>
<defs>
<filter id="filter0_d_1160_123" x="0" y="0" width="162" height="214" filterUnits="userSpaceOnUse" color-interpolation-filters="sRGB">
<feFlood flood-opacity="0" result="BackgroundImageFix"/>
<feColorMatrix in="SourceAlpha" type="matrix" values="0 0 0 0 0 0 0 0 0 0 0 0 0 0 0 0 0 0 127 0" result="hardAlpha"/>
<feOffset dx="2"/>
<feGaussianBlur stdDeviation="12.5"/>
<feComposite in2="hardAlpha" operator="out"/>
<feColorMatrix type="matrix" values="0 0 0 0 0 0 0 0 0 0 0 0 0 0 0 0 0 0 0.05 0"/>
<feBlend mode="normal" in2="BackgroundImageFix" result="effect1_dropShadow_1160_123"/>
<feBlend mode="normal" in="SourceGraphic" in2="effect1_dropShadow_1160_123" result="shape"/>
</filter>
<clipPath id="clip0_1160_123">
<rect width="112" height="164" fill="white" transform="matrix(-1 0 0 -1 135 189)"/>
</clipPath>
<clipPath id="clip1_1160_123">
<rect width="8" height="8" fill="white" transform="matrix(-0.707107 -0.707107 -0.707107 0.707107 134.657 183)"/>
</clipPath>
<clipPath id="clip2_1160_123">
<rect width="8" height="8" fill="white" transform="matrix(0.707107 -0.707107 -0.707107 -0.707107 29 188.656)"/>
</clipPath>
<clipPath id="clip3_1160_123">
<rect width="8" height="8" fill="white" transform="translate(134.657 31) rotate(135)"/>
</clipPath>
<clipPath id="clip4_1160_123">
<rect width="8" height="8" fill="white" transform="matrix(0.707107 0.707107 0.707107 -0.707107 23.3433 31)"/>
</clipPath>
</defs>
</svg>
