<svg width="162" height="214" viewBox="0 0 162 214" fill="none" xmlns="http://www.w3.org/2000/svg">
<g clip-path="url(#clip0_1160_73)" filter="url(#filter0_d_1160_73)">
<rect width="112" height="164" transform="matrix(-1 0 0 -1 135 189)" fill="#1F1F1F"/>
<path d="M61.5703 108.51V102.469H62.6953V108.51C62.6953 109.072 62.5801 109.547 62.3496 109.934C62.1191 110.32 61.8008 110.615 61.3945 110.818C60.9922 111.018 60.5293 111.117 60.0059 111.117C59.4824 111.117 59.0176 111.027 58.6113 110.848C58.2051 110.668 57.8867 110.395 57.6562 110.027C57.4258 109.66 57.3105 109.197 57.3105 108.639H58.4414C58.4414 108.998 58.5078 109.293 58.6406 109.523C58.7734 109.754 58.957 109.924 59.1914 110.033C59.4297 110.143 59.7012 110.197 60.0059 110.197C60.3027 110.197 60.5684 110.135 60.8027 110.01C61.041 109.881 61.2285 109.691 61.3652 109.441C61.502 109.188 61.5703 108.877 61.5703 108.51ZM70.1512 110.08V111H65.6337V110.08H70.1512ZM65.8622 102.469V111H64.7313V102.469H65.8622ZM69.5536 106.137V107.057H65.6337V106.137H69.5536ZM70.0927 102.469V103.395H65.6337V102.469H70.0927ZM78.24 106.465V107.004C78.24 107.645 78.1599 108.219 77.9998 108.727C77.8396 109.234 77.6091 109.666 77.3084 110.021C77.0076 110.377 76.6462 110.648 76.2244 110.836C75.8064 111.023 75.3377 111.117 74.8181 111.117C74.3142 111.117 73.8513 111.023 73.4295 110.836C73.0115 110.648 72.6482 110.377 72.3396 110.021C72.0349 109.666 71.7986 109.234 71.6306 108.727C71.4627 108.219 71.3787 107.645 71.3787 107.004V106.465C71.3787 105.824 71.4607 105.252 71.6248 104.748C71.7927 104.24 72.0291 103.809 72.3337 103.453C72.6384 103.094 72.9998 102.82 73.4177 102.633C73.8396 102.445 74.3025 102.352 74.8064 102.352C75.3259 102.352 75.7947 102.445 76.2127 102.633C76.6345 102.82 76.9959 103.094 77.2966 103.453C77.6013 103.809 77.8337 104.24 77.9939 104.748C78.158 105.252 78.24 105.824 78.24 106.465ZM77.1209 107.004V106.453C77.1209 105.945 77.0681 105.496 76.9627 105.105C76.8611 104.715 76.7107 104.387 76.5115 104.121C76.3123 103.855 76.0681 103.654 75.7791 103.518C75.4939 103.381 75.1697 103.312 74.8064 103.312C74.4548 103.312 74.1365 103.381 73.8513 103.518C73.5701 103.654 73.3279 103.855 73.1248 104.121C72.9255 104.387 72.7712 104.715 72.6619 105.105C72.5525 105.496 72.4978 105.945 72.4978 106.453V107.004C72.4978 107.516 72.5525 107.969 72.6619 108.363C72.7712 108.754 72.9275 109.084 73.1306 109.354C73.3377 109.619 73.5818 109.82 73.863 109.957C74.1482 110.094 74.4666 110.162 74.8181 110.162C75.1853 110.162 75.5115 110.094 75.7966 109.957C76.0818 109.82 76.322 109.619 76.5173 109.354C76.7166 109.084 76.867 108.754 76.9685 108.363C77.0701 107.969 77.1209 107.516 77.1209 107.004ZM86.6159 102.469V111H85.4791L81.1842 104.42V111H80.0534V102.469H81.1842L85.4967 109.066V102.469H86.6159ZM95.0445 106.752V109.875C94.939 110.031 94.771 110.207 94.5405 110.402C94.3101 110.594 93.9917 110.762 93.5855 110.906C93.1831 111.047 92.6636 111.117 92.0269 111.117C91.5073 111.117 91.0288 111.027 90.5913 110.848C90.1577 110.664 89.7808 110.398 89.4605 110.051C89.1441 109.699 88.898 109.273 88.7222 108.773C88.5503 108.27 88.4644 107.699 88.4644 107.062V106.4C88.4644 105.764 88.5386 105.195 88.687 104.695C88.8394 104.195 89.062 103.771 89.355 103.424C89.648 103.072 90.0073 102.807 90.4331 102.627C90.8589 102.443 91.3472 102.352 91.898 102.352C92.5503 102.352 93.0952 102.465 93.5327 102.691C93.9741 102.914 94.3179 103.223 94.564 103.617C94.814 104.012 94.9741 104.461 95.0445 104.965H93.9136C93.8628 104.656 93.7612 104.375 93.6089 104.121C93.4605 103.867 93.2476 103.664 92.9702 103.512C92.6929 103.355 92.3355 103.277 91.898 103.277C91.5034 103.277 91.1616 103.35 90.8726 103.494C90.5835 103.639 90.3452 103.846 90.1577 104.115C89.9702 104.385 89.8296 104.711 89.7359 105.094C89.646 105.477 89.6011 105.908 89.6011 106.389V107.062C89.6011 107.555 89.6577 107.994 89.771 108.381C89.8882 108.768 90.0542 109.098 90.2691 109.371C90.4839 109.641 90.7398 109.846 91.0366 109.986C91.3374 110.127 91.6695 110.197 92.0327 110.197C92.4351 110.197 92.7612 110.164 93.0112 110.098C93.2612 110.027 93.4566 109.945 93.5972 109.852C93.7378 109.754 93.8452 109.662 93.9195 109.576V107.666H91.9448V106.752H95.0445ZM96.893 110.426C96.893 110.242 96.9496 110.088 97.0629 109.963C97.1801 109.834 97.348 109.77 97.5668 109.77C97.7855 109.77 97.9516 109.834 98.0648 109.963C98.182 110.088 98.2406 110.242 98.2406 110.426C98.2406 110.605 98.182 110.758 98.0648 110.883C97.9516 111.008 97.7855 111.07 97.5668 111.07C97.348 111.07 97.1801 111.008 97.0629 110.883C96.9496 110.758 96.893 110.605 96.893 110.426Z" fill="white"/>
<g clip-path="url(#clip1_1160_73)">
<path d="M126.807 181.056L126.807 184.237C126.807 184.304 126.834 184.367 126.881 184.414C126.927 184.461 126.991 184.488 127.057 184.488C127.124 184.488 127.187 184.461 127.234 184.414C127.281 184.367 127.308 184.304 127.308 184.237L127.307 181.659L130.77 185.121C130.817 185.168 130.88 185.195 130.946 185.195C131.013 185.195 131.076 185.168 131.123 185.121C131.17 185.074 131.196 185.011 131.196 184.945C131.196 184.878 131.17 184.815 131.123 184.768L127.661 181.305L130.239 181.306C130.306 181.306 130.369 181.279 130.416 181.232C130.463 181.185 130.49 181.122 130.49 181.056C130.49 180.989 130.463 180.926 130.416 180.879C130.369 180.832 130.306 180.805 130.239 180.805L127.057 180.805C127.025 180.805 126.992 180.812 126.962 180.824C126.931 180.837 126.904 180.855 126.88 180.879C126.857 180.902 126.839 180.929 126.826 180.96C126.814 180.99 126.807 181.023 126.807 181.056Z" fill="white"/>
</g>
<g clip-path="url(#clip2_1160_73)">
<path d="M30.9464 180.805L27.7645 180.805C27.6981 180.805 27.6345 180.831 27.5876 180.878C27.5407 180.925 27.5143 180.989 27.5143 181.055C27.5143 181.121 27.5407 181.185 27.5876 181.232C27.6345 181.279 27.6981 181.305 27.7645 181.305L30.343 181.305L26.8806 184.767C26.8337 184.814 26.8073 184.878 26.8073 184.944C26.8073 185.01 26.8337 185.074 26.8806 185.121C26.9275 185.168 26.991 185.194 27.0573 185.194C27.1237 185.194 27.1872 185.168 27.2341 185.121L30.6965 181.658L30.6963 184.237C30.6963 184.303 30.7227 184.367 30.7696 184.414C30.8165 184.461 30.8801 184.487 30.9464 184.487C31.0128 184.487 31.0764 184.461 31.1233 184.414C31.1702 184.367 31.1966 184.303 31.1966 184.237L31.1966 181.055C31.1966 181.022 31.1901 180.99 31.1776 180.959C31.165 180.929 31.1466 180.901 31.1234 180.878C31.1001 180.855 31.0725 180.836 31.0422 180.824C31.0118 180.811 30.9793 180.805 30.9464 180.805Z" fill="white"/>
</g>
<g clip-path="url(#clip3_1160_73)">
<path d="M126.807 32.9445L126.807 29.7625C126.807 29.6962 126.834 29.6325 126.881 29.5856C126.927 29.5387 126.991 29.5124 127.057 29.5124C127.124 29.5124 127.187 29.5387 127.234 29.5856C127.281 29.6325 127.308 29.6962 127.308 29.7625L127.307 32.341L130.77 28.8786C130.817 28.8317 130.88 28.8054 130.946 28.8054C131.013 28.8054 131.076 28.8317 131.123 28.8786C131.17 28.9255 131.196 28.9891 131.196 29.0554C131.196 29.1217 131.17 29.1853 131.123 29.2322L127.661 32.6946L130.239 32.6943C130.306 32.6943 130.369 32.7207 130.416 32.7676C130.463 32.8145 130.49 32.8781 130.49 32.9445C130.49 33.0108 130.463 33.0744 130.416 33.1214C130.369 33.1683 130.306 33.1946 130.239 33.1946L127.057 33.1946C127.025 33.1946 126.992 33.1882 126.962 33.1756C126.931 33.1631 126.904 33.1446 126.88 33.1214C126.857 33.0982 126.839 33.0706 126.826 33.0402C126.814 33.0099 126.807 32.9773 126.807 32.9445Z" fill="white"/>
</g>
<g clip-path="url(#clip4_1160_73)">
<path d="M31.1928 32.9445L31.1928 29.7625C31.1928 29.6962 31.1664 29.6325 31.1195 29.5856C31.0726 29.5387 31.009 29.5124 30.9426 29.5124C30.8763 29.5124 30.8127 29.5387 30.7657 29.5856C30.7188 29.6325 30.6925 29.6962 30.6925 29.7625L30.6927 32.341L27.2303 28.8786C27.1834 28.8317 27.1198 28.8054 27.0535 28.8054C26.9872 28.8054 26.9236 28.8317 26.8768 28.8786C26.8299 28.9255 26.8035 28.9891 26.8035 29.0554C26.8035 29.1217 26.8299 29.1853 26.8768 29.2322L30.3391 32.6946L27.7606 32.6943C27.6943 32.6943 27.6307 32.7207 27.5838 32.7676C27.5369 32.8145 27.5105 32.8781 27.5105 32.9445C27.5105 33.0108 27.5369 33.0744 27.5838 33.1214C27.6307 33.1683 27.6943 33.1946 27.7606 33.1946L30.9426 33.1946C30.9755 33.1946 31.008 33.1882 31.0384 33.1756C31.0687 33.1631 31.0963 33.1446 31.1195 33.1214C31.1428 33.0982 31.1612 33.0706 31.1738 33.0402C31.1863 33.0099 31.1928 32.9773 31.1928 32.9445Z" fill="white"/>
</g>
</g>
<defs>
<filter id="filter0_d_1160_73" x="0" y="0" width="162" height="214" filterUnits="userSpaceOnUse" color-interpolation-filters="sRGB">
<feFlood flood-opacity="0" result="BackgroundImageFix"/>
<feColorMatrix in="SourceAlpha" type="matrix" values="0 0 0 0 0 0 0 0 0 0 0 0 0 0 0 0 0 0 127 0" result="hardAlpha"/>
<feOffset dx="2"/>
<feGaussianBlur stdDeviation="12.5"/>
<feComposite in2="hardAlpha" operator="out"/>
<feColorMatrix type="matrix" values="0 0 0 0 0 0 0 0 0 0 0 0 0 0 0 0 0 0 0.05 0"/>
<feBlend mode="normal" in2="BackgroundImageFix" result="effect1_dropShadow_1160_73"/>
<feBlend mode="normal" in="SourceGraphic" in2="effect1_dropShadow_1160_73" result="shape"/>
</filter>
<clipPath id="clip0_1160_73">
<rect width="112" height="164" fill="white" transform="matrix(-1 0 0 -1 135 189)"/>
</clipPath>
<clipPath id="clip1_1160_73">
<rect width="8" height="8" fill="white" transform="matrix(-0.707107 -0.707107 -0.707107 0.707107 134.657 183)"/>
</clipPath>
<clipPath id="clip2_1160_73">
<rect width="8" height="8" fill="white" transform="matrix(0.707107 -0.707107 -0.707107 -0.707107 29 188.656)"/>
</clipPath>
<clipPath id="clip3_1160_73">
<rect width="8" height="8" fill="white" transform="translate(134.657 31) rotate(135)"/>
</clipPath>
<clipPath id="clip4_1160_73">
<rect width="8" height="8" fill="white" transform="matrix(0.707107 0.707107 0.707107 -0.707107 23.3433 31)"/>
</clipPath>
</defs>
</svg>
