<svg width="162" height="214" viewBox="0 0 162 214" fill="none" xmlns="http://www.w3.org/2000/svg">
<g clip-path="url(#clip0_1160_53)" filter="url(#filter0_d_1160_53)">
<rect width="112" height="164" transform="matrix(-1 0 0 -1 135 189)" fill="#1F1F1F"/>
<path d="M63.5625 106.137V107.057H58.9453V106.137H63.5625ZM59.1211 102.469V111H57.9902V102.469H59.1211ZM64.5469 102.469V111H63.4219V102.469H64.5469ZM66.9052 102.469L69.12 106.752L71.3407 102.469H72.6239L69.6825 107.812V111H68.5516V107.812L65.6102 102.469H66.9052ZM79.9685 106.752V109.875C79.863 110.031 79.6951 110.207 79.4646 110.402C79.2341 110.594 78.9158 110.762 78.5095 110.906C78.1072 111.047 77.5877 111.117 76.9509 111.117C76.4314 111.117 75.9529 111.027 75.5154 110.848C75.0818 110.664 74.7048 110.398 74.3845 110.051C74.0681 109.699 73.822 109.273 73.6462 108.773C73.4744 108.27 73.3884 107.699 73.3884 107.062V106.4C73.3884 105.764 73.4627 105.195 73.6111 104.695C73.7634 104.195 73.9861 103.771 74.2791 103.424C74.572 103.072 74.9314 102.807 75.3572 102.627C75.783 102.443 76.2712 102.352 76.822 102.352C77.4744 102.352 78.0193 102.465 78.4568 102.691C78.8982 102.914 79.242 103.223 79.488 103.617C79.738 104.012 79.8982 104.461 79.9685 104.965H78.8377C78.7869 104.656 78.6853 104.375 78.533 104.121C78.3845 103.867 78.1716 103.664 77.8943 103.512C77.617 103.355 77.2595 103.277 76.822 103.277C76.4275 103.277 76.0857 103.35 75.7966 103.494C75.5076 103.639 75.2693 103.846 75.0818 104.115C74.8943 104.385 74.7537 104.711 74.6599 105.094C74.5701 105.477 74.5252 105.908 74.5252 106.389V107.062C74.5252 107.555 74.5818 107.994 74.6951 108.381C74.8123 108.768 74.9783 109.098 75.1931 109.371C75.408 109.641 75.6638 109.846 75.9607 109.986C76.2615 110.127 76.5935 110.197 76.9568 110.197C77.3591 110.197 77.6853 110.164 77.9353 110.098C78.1853 110.027 78.3806 109.945 78.5212 109.852C78.6619 109.754 78.7693 109.662 78.8435 109.576V107.666H76.8689V106.752H79.9685ZM88.2682 106.752V109.875C88.1627 110.031 87.9948 110.207 87.7643 110.402C87.5338 110.594 87.2155 110.762 86.8092 110.906C86.4069 111.047 85.8873 111.117 85.2506 111.117C84.7311 111.117 84.2526 111.027 83.8151 110.848C83.3815 110.664 83.0045 110.398 82.6842 110.051C82.3678 109.699 82.1217 109.273 81.9459 108.773C81.7741 108.27 81.6881 107.699 81.6881 107.062V106.4C81.6881 105.764 81.7623 105.195 81.9108 104.695C82.0631 104.195 82.2858 103.771 82.5788 103.424C82.8717 103.072 83.2311 102.807 83.6569 102.627C84.0827 102.443 84.5709 102.352 85.1217 102.352C85.7741 102.352 86.319 102.465 86.7565 102.691C87.1979 102.914 87.5416 103.223 87.7877 103.617C88.0377 104.012 88.1979 104.461 88.2682 104.965H87.1373C87.0866 104.656 86.985 104.375 86.8327 104.121C86.6842 103.867 86.4713 103.664 86.194 103.512C85.9166 103.355 85.5592 103.277 85.1217 103.277C84.7272 103.277 84.3854 103.35 84.0963 103.494C83.8073 103.639 83.569 103.846 83.3815 104.115C83.194 104.385 83.0534 104.711 82.9596 105.094C82.8698 105.477 82.8248 105.908 82.8248 106.389V107.062C82.8248 107.555 82.8815 107.994 82.9948 108.381C83.112 108.768 83.278 109.098 83.4928 109.371C83.7077 109.641 83.9635 109.846 84.2604 109.986C84.5612 110.127 84.8932 110.197 85.2565 110.197C85.6588 110.197 85.985 110.164 86.235 110.098C86.485 110.027 86.6803 109.945 86.8209 109.852C86.9616 109.754 87.069 109.662 87.1432 109.576V107.666H85.1686V106.752H88.2682ZM95.6831 110.08V111H91.1655V110.08H95.6831ZM91.3941 102.469V111H90.2632V102.469H91.3941ZM95.0855 106.137V107.057H91.1655V106.137H95.0855ZM95.6245 102.469V103.395H91.1655V102.469H95.6245ZM97.057 110.426C97.057 110.242 97.1137 110.088 97.227 109.963C97.3441 109.834 97.5121 109.77 97.7309 109.77C97.9496 109.77 98.1156 109.834 98.2289 109.963C98.3461 110.088 98.4047 110.242 98.4047 110.426C98.4047 110.605 98.3461 110.758 98.2289 110.883C98.1156 111.008 97.9496 111.07 97.7309 111.07C97.5121 111.07 97.3441 111.008 97.227 110.883C97.1137 110.758 97.057 110.605 97.057 110.426Z" fill="white"/>
<g clip-path="url(#clip1_1160_53)">
<path d="M126.807 181.056L126.807 184.237C126.807 184.304 126.834 184.367 126.881 184.414C126.927 184.461 126.991 184.488 127.057 184.488C127.124 184.488 127.187 184.461 127.234 184.414C127.281 184.367 127.308 184.304 127.308 184.237L127.307 181.659L130.77 185.121C130.817 185.168 130.88 185.195 130.946 185.195C131.013 185.195 131.076 185.168 131.123 185.121C131.17 185.074 131.196 185.011 131.196 184.945C131.196 184.878 131.17 184.815 131.123 184.768L127.661 181.305L130.239 181.306C130.306 181.306 130.369 181.279 130.416 181.232C130.463 181.185 130.49 181.122 130.49 181.056C130.49 180.989 130.463 180.926 130.416 180.879C130.369 180.832 130.306 180.805 130.239 180.805L127.057 180.805C127.025 180.805 126.992 180.812 126.962 180.824C126.931 180.837 126.904 180.855 126.88 180.879C126.857 180.902 126.839 180.929 126.826 180.96C126.814 180.99 126.807 181.023 126.807 181.056Z" fill="white"/>
</g>
<g clip-path="url(#clip2_1160_53)">
<path d="M30.9464 180.805L27.7645 180.805C27.6981 180.805 27.6345 180.831 27.5876 180.878C27.5407 180.925 27.5143 180.989 27.5143 181.055C27.5143 181.121 27.5407 181.185 27.5876 181.232C27.6345 181.279 27.6981 181.305 27.7645 181.305L30.343 181.305L26.8806 184.767C26.8337 184.814 26.8073 184.878 26.8073 184.944C26.8073 185.01 26.8337 185.074 26.8806 185.121C26.9275 185.168 26.991 185.194 27.0573 185.194C27.1237 185.194 27.1872 185.168 27.2341 185.121L30.6965 181.658L30.6963 184.237C30.6963 184.303 30.7227 184.367 30.7696 184.414C30.8165 184.461 30.8801 184.487 30.9464 184.487C31.0128 184.487 31.0764 184.461 31.1233 184.414C31.1702 184.367 31.1966 184.303 31.1966 184.237L31.1966 181.055C31.1966 181.022 31.1901 180.99 31.1776 180.959C31.165 180.929 31.1466 180.901 31.1234 180.878C31.1001 180.855 31.0725 180.836 31.0422 180.824C31.0118 180.811 30.9793 180.805 30.9464 180.805Z" fill="white"/>
</g>
<g clip-path="url(#clip3_1160_53)">
<path d="M126.807 32.9445L126.807 29.7625C126.807 29.6962 126.834 29.6325 126.881 29.5856C126.927 29.5387 126.991 29.5124 127.057 29.5124C127.124 29.5124 127.187 29.5387 127.234 29.5856C127.281 29.6325 127.308 29.6962 127.308 29.7625L127.307 32.341L130.77 28.8786C130.817 28.8317 130.88 28.8054 130.946 28.8054C131.013 28.8054 131.076 28.8317 131.123 28.8786C131.17 28.9255 131.196 28.9891 131.196 29.0554C131.196 29.1217 131.17 29.1853 131.123 29.2322L127.661 32.6946L130.239 32.6943C130.306 32.6943 130.369 32.7207 130.416 32.7676C130.463 32.8145 130.49 32.8781 130.49 32.9445C130.49 33.0108 130.463 33.0744 130.416 33.1214C130.369 33.1683 130.306 33.1946 130.239 33.1946L127.057 33.1946C127.025 33.1946 126.992 33.1882 126.962 33.1756C126.931 33.1631 126.904 33.1446 126.88 33.1214C126.857 33.0982 126.839 33.0706 126.826 33.0402C126.814 33.0099 126.807 32.9773 126.807 32.9445Z" fill="white"/>
</g>
<g clip-path="url(#clip4_1160_53)">
<path d="M31.1928 32.9445L31.1928 29.7625C31.1928 29.6962 31.1664 29.6325 31.1195 29.5856C31.0726 29.5387 31.009 29.5124 30.9426 29.5124C30.8763 29.5124 30.8127 29.5387 30.7657 29.5856C30.7188 29.6325 30.6925 29.6962 30.6925 29.7625L30.6927 32.341L27.2303 28.8786C27.1834 28.8317 27.1198 28.8054 27.0535 28.8054C26.9872 28.8054 26.9236 28.8317 26.8768 28.8786C26.8299 28.9255 26.8035 28.9891 26.8035 29.0554C26.8035 29.1217 26.8299 29.1853 26.8768 29.2322L30.3391 32.6946L27.7606 32.6943C27.6943 32.6943 27.6307 32.7207 27.5838 32.7676C27.5369 32.8145 27.5105 32.8781 27.5105 32.9445C27.5105 33.0108 27.5369 33.0744 27.5838 33.1214C27.6307 33.1683 27.6943 33.1946 27.7606 33.1946L30.9426 33.1946C30.9755 33.1946 31.008 33.1882 31.0384 33.1756C31.0687 33.1631 31.0963 33.1446 31.1195 33.1214C31.1428 33.0982 31.1612 33.0706 31.1738 33.0402C31.1863 33.0099 31.1928 32.9773 31.1928 32.9445Z" fill="white"/>
</g>
</g>
<defs>
<filter id="filter0_d_1160_53" x="0" y="0" width="162" height="214" filterUnits="userSpaceOnUse" color-interpolation-filters="sRGB">
<feFlood flood-opacity="0" result="BackgroundImageFix"/>
<feColorMatrix in="SourceAlpha" type="matrix" values="0 0 0 0 0 0 0 0 0 0 0 0 0 0 0 0 0 0 127 0" result="hardAlpha"/>
<feOffset dx="2"/>
<feGaussianBlur stdDeviation="12.5"/>
<feComposite in2="hardAlpha" operator="out"/>
<feColorMatrix type="matrix" values="0 0 0 0 0 0 0 0 0 0 0 0 0 0 0 0 0 0 0.05 0"/>
<feBlend mode="normal" in2="BackgroundImageFix" result="effect1_dropShadow_1160_53"/>
<feBlend mode="normal" in="SourceGraphic" in2="effect1_dropShadow_1160_53" result="shape"/>
</filter>
<clipPath id="clip0_1160_53">
<rect width="112" height="164" fill="white" transform="matrix(-1 0 0 -1 135 189)"/>
</clipPath>
<clipPath id="clip1_1160_53">
<rect width="8" height="8" fill="white" transform="matrix(-0.707107 -0.707107 -0.707107 0.707107 134.657 183)"/>
</clipPath>
<clipPath id="clip2_1160_53">
<rect width="8" height="8" fill="white" transform="matrix(0.707107 -0.707107 -0.707107 -0.707107 29 188.656)"/>
</clipPath>
<clipPath id="clip3_1160_53">
<rect width="8" height="8" fill="white" transform="translate(134.657 31) rotate(135)"/>
</clipPath>
<clipPath id="clip4_1160_53">
<rect width="8" height="8" fill="white" transform="matrix(0.707107 0.707107 0.707107 -0.707107 23.3433 31)"/>
</clipPath>
</defs>
</svg>
