<svg width="162" height="214" viewBox="0 0 162 214" fill="none" xmlns="http://www.w3.org/2000/svg">
<g clip-path="url(#clip0_1160_183)" filter="url(#filter0_d_1160_183)">
<rect width="112" height="164" transform="matrix(-1 0 0 -1 135 189)" fill="#1F1F1F"/>
<path d="M52.3828 102.469L54.5977 106.752L56.8184 102.469H58.1016L55.1602 107.812V111H54.0293V107.812L51.0879 102.469H52.3828ZM61.9247 103.225L59.1005 111H57.9462L61.1981 102.469H61.9423L61.9247 103.225ZM64.2919 111L61.4618 103.225L61.4442 102.469H62.1884L65.452 111H64.2919ZM64.1454 107.842V108.768H59.3524V107.842H64.1454ZM66.5564 102.469L68.7712 106.752L70.992 102.469H72.2752L69.3337 107.812V111H68.2029V107.812L65.2615 102.469H66.5564ZM76.0983 103.225L73.2741 111H72.1198L75.3717 102.469H76.1159L76.0983 103.225ZM78.4655 111L75.6354 103.225L75.6178 102.469H76.362L79.6256 111H78.4655ZM78.319 107.842V108.768H73.526V107.842H78.319ZM83.1265 109.705L85.6402 102.469H86.8648L83.7066 111H82.8335L83.1265 109.705ZM80.7769 102.469L83.2671 109.705L83.5777 111H82.7046L79.5523 102.469H80.7769ZM90.8461 103.225L88.0219 111H86.8676L90.1195 102.469H90.8637L90.8461 103.225ZM93.2133 111L90.3832 103.225L90.3656 102.469H91.1098L94.3734 111H93.2133ZM93.0668 107.842V108.768H88.2738V107.842H93.0668ZM95.636 102.469H98.4602C99.1009 102.469 99.6419 102.566 100.083 102.762C100.529 102.957 100.866 103.246 101.097 103.629C101.331 104.008 101.449 104.475 101.449 105.029C101.449 105.42 101.368 105.777 101.208 106.102C101.052 106.422 100.825 106.695 100.529 106.922C100.236 107.145 99.8841 107.311 99.4739 107.42L99.1575 107.543H96.5032L96.4915 106.623H98.4954C98.9016 106.623 99.2395 106.553 99.5091 106.412C99.7786 106.268 99.9817 106.074 100.118 105.832C100.255 105.59 100.324 105.322 100.324 105.029C100.324 104.701 100.259 104.414 100.13 104.168C100.001 103.922 99.7981 103.732 99.5208 103.6C99.2473 103.463 98.8938 103.395 98.4602 103.395H96.7669V111H95.636V102.469ZM100.622 111L98.5481 107.133L99.7259 107.127L101.829 110.93V111H100.622ZM103.004 110.426C103.004 110.242 103.061 110.088 103.174 109.963C103.291 109.834 103.459 109.77 103.678 109.77C103.897 109.77 104.063 109.834 104.176 109.963C104.293 110.088 104.352 110.242 104.352 110.426C104.352 110.605 104.293 110.758 104.176 110.883C104.063 111.008 103.897 111.07 103.678 111.07C103.459 111.07 103.291 111.008 103.174 110.883C103.061 110.758 103.004 110.605 103.004 110.426Z" fill="white"/>
<g clip-path="url(#clip1_1160_183)">
<path d="M126.807 181.056L126.807 184.237C126.807 184.304 126.834 184.367 126.881 184.414C126.927 184.461 126.991 184.488 127.057 184.488C127.124 184.488 127.187 184.461 127.234 184.414C127.281 184.367 127.308 184.304 127.308 184.237L127.307 181.659L130.77 185.121C130.817 185.168 130.88 185.195 130.946 185.195C131.013 185.195 131.076 185.168 131.123 185.121C131.17 185.074 131.196 185.011 131.196 184.945C131.196 184.878 131.17 184.815 131.123 184.768L127.661 181.305L130.239 181.306C130.306 181.306 130.369 181.279 130.416 181.232C130.463 181.185 130.49 181.122 130.49 181.056C130.49 180.989 130.463 180.926 130.416 180.879C130.369 180.832 130.306 180.805 130.239 180.805L127.057 180.805C127.025 180.805 126.992 180.812 126.962 180.824C126.931 180.837 126.904 180.855 126.88 180.879C126.857 180.902 126.839 180.929 126.826 180.96C126.814 180.99 126.807 181.023 126.807 181.056Z" fill="white"/>
</g>
<g clip-path="url(#clip2_1160_183)">
<path d="M30.9464 180.805L27.7645 180.805C27.6981 180.805 27.6345 180.831 27.5876 180.878C27.5407 180.925 27.5143 180.989 27.5143 181.055C27.5143 181.121 27.5407 181.185 27.5876 181.232C27.6345 181.279 27.6981 181.305 27.7645 181.305L30.343 181.305L26.8806 184.767C26.8337 184.814 26.8073 184.878 26.8073 184.944C26.8073 185.01 26.8337 185.074 26.8806 185.121C26.9275 185.168 26.991 185.194 27.0573 185.194C27.1237 185.194 27.1872 185.168 27.2341 185.121L30.6965 181.658L30.6963 184.237C30.6963 184.303 30.7227 184.367 30.7696 184.414C30.8165 184.461 30.8801 184.487 30.9464 184.487C31.0128 184.487 31.0764 184.461 31.1233 184.414C31.1702 184.367 31.1966 184.303 31.1966 184.237L31.1966 181.055C31.1966 181.022 31.1901 180.99 31.1776 180.959C31.165 180.929 31.1466 180.901 31.1234 180.878C31.1001 180.855 31.0725 180.836 31.0422 180.824C31.0118 180.811 30.9793 180.805 30.9464 180.805Z" fill="white"/>
</g>
<g clip-path="url(#clip3_1160_183)">
<path d="M126.807 32.9445L126.807 29.7625C126.807 29.6962 126.834 29.6325 126.881 29.5856C126.927 29.5387 126.991 29.5124 127.057 29.5124C127.124 29.5124 127.187 29.5387 127.234 29.5856C127.281 29.6325 127.308 29.6962 127.308 29.7625L127.307 32.341L130.77 28.8786C130.817 28.8317 130.88 28.8054 130.946 28.8054C131.013 28.8054 131.076 28.8317 131.123 28.8786C131.17 28.9255 131.196 28.9891 131.196 29.0554C131.196 29.1217 131.17 29.1853 131.123 29.2322L127.661 32.6946L130.239 32.6943C130.306 32.6943 130.369 32.7207 130.416 32.7676C130.463 32.8145 130.49 32.8781 130.49 32.9445C130.49 33.0108 130.463 33.0744 130.416 33.1214C130.369 33.1683 130.306 33.1946 130.239 33.1946L127.057 33.1946C127.025 33.1946 126.992 33.1882 126.962 33.1756C126.931 33.1631 126.904 33.1446 126.88 33.1214C126.857 33.0982 126.839 33.0706 126.826 33.0402C126.814 33.0099 126.807 32.9773 126.807 32.9445Z" fill="white"/>
</g>
<g clip-path="url(#clip4_1160_183)">
<path d="M31.1928 32.9445L31.1928 29.7625C31.1928 29.6962 31.1664 29.6325 31.1195 29.5856C31.0726 29.5387 31.009 29.5124 30.9426 29.5124C30.8763 29.5124 30.8127 29.5387 30.7657 29.5856C30.7188 29.6325 30.6925 29.6962 30.6925 29.7625L30.6927 32.341L27.2303 28.8786C27.1834 28.8317 27.1198 28.8054 27.0535 28.8054C26.9872 28.8054 26.9236 28.8317 26.8768 28.8786C26.8299 28.9255 26.8035 28.9891 26.8035 29.0554C26.8035 29.1217 26.8299 29.1853 26.8768 29.2322L30.3391 32.6946L27.7606 32.6943C27.6943 32.6943 27.6307 32.7207 27.5838 32.7676C27.5369 32.8145 27.5105 32.8781 27.5105 32.9445C27.5105 33.0108 27.5369 33.0744 27.5838 33.1214C27.6307 33.1683 27.6943 33.1946 27.7606 33.1946L30.9426 33.1946C30.9755 33.1946 31.008 33.1882 31.0384 33.1756C31.0687 33.1631 31.0963 33.1446 31.1195 33.1214C31.1428 33.0982 31.1612 33.0706 31.1738 33.0402C31.1863 33.0099 31.1928 32.9773 31.1928 32.9445Z" fill="white"/>
</g>
</g>
<defs>
<filter id="filter0_d_1160_183" x="0" y="0" width="162" height="214" filterUnits="userSpaceOnUse" color-interpolation-filters="sRGB">
<feFlood flood-opacity="0" result="BackgroundImageFix"/>
<feColorMatrix in="SourceAlpha" type="matrix" values="0 0 0 0 0 0 0 0 0 0 0 0 0 0 0 0 0 0 127 0" result="hardAlpha"/>
<feOffset dx="2"/>
<feGaussianBlur stdDeviation="12.5"/>
<feComposite in2="hardAlpha" operator="out"/>
<feColorMatrix type="matrix" values="0 0 0 0 0 0 0 0 0 0 0 0 0 0 0 0 0 0 0.05 0"/>
<feBlend mode="normal" in2="BackgroundImageFix" result="effect1_dropShadow_1160_183"/>
<feBlend mode="normal" in="SourceGraphic" in2="effect1_dropShadow_1160_183" result="shape"/>
</filter>
<clipPath id="clip0_1160_183">
<rect width="112" height="164" fill="white" transform="matrix(-1 0 0 -1 135 189)"/>
</clipPath>
<clipPath id="clip1_1160_183">
<rect width="8" height="8" fill="white" transform="matrix(-0.707107 -0.707107 -0.707107 0.707107 134.657 183)"/>
</clipPath>
<clipPath id="clip2_1160_183">
<rect width="8" height="8" fill="white" transform="matrix(0.707107 -0.707107 -0.707107 -0.707107 29 188.656)"/>
</clipPath>
<clipPath id="clip3_1160_183">
<rect width="8" height="8" fill="white" transform="translate(134.657 31) rotate(135)"/>
</clipPath>
<clipPath id="clip4_1160_183">
<rect width="8" height="8" fill="white" transform="matrix(0.707107 0.707107 0.707107 -0.707107 23.3433 31)"/>
</clipPath>
</defs>
</svg>
