<svg width="162" height="214" viewBox="0 0 162 214" fill="none" xmlns="http://www.w3.org/2000/svg">
<g clip-path="url(#clip0_1160_33)" filter="url(#filter0_d_1160_33)">
<rect width="112" height="164" transform="matrix(-1 0 0 -1 135 189)" fill="#1F1F1F"/>
<path d="M67.5586 106.465V107.004C67.5586 107.645 67.4785 108.219 67.3184 108.727C67.1582 109.234 66.9277 109.666 66.627 110.021C66.3262 110.377 65.9648 110.648 65.543 110.836C65.125 111.023 64.6562 111.117 64.1367 111.117C63.6328 111.117 63.1699 111.023 62.748 110.836C62.3301 110.648 61.9668 110.377 61.6582 110.021C61.3535 109.666 61.1172 109.234 60.9492 108.727C60.7812 108.219 60.6973 107.645 60.6973 107.004V106.465C60.6973 105.824 60.7793 105.252 60.9434 104.748C61.1113 104.24 61.3477 103.809 61.6523 103.453C61.957 103.094 62.3184 102.82 62.7363 102.633C63.1582 102.445 63.6211 102.352 64.125 102.352C64.6445 102.352 65.1133 102.445 65.5312 102.633C65.9531 102.82 66.3145 103.094 66.6152 103.453C66.9199 103.809 67.1523 104.24 67.3125 104.748C67.4766 105.252 67.5586 105.824 67.5586 106.465ZM66.4395 107.004V106.453C66.4395 105.945 66.3867 105.496 66.2812 105.105C66.1797 104.715 66.0293 104.387 65.8301 104.121C65.6309 103.855 65.3867 103.654 65.0977 103.518C64.8125 103.381 64.4883 103.312 64.125 103.312C63.7734 103.312 63.4551 103.381 63.1699 103.518C62.8887 103.654 62.6465 103.855 62.4434 104.121C62.2441 104.387 62.0898 104.715 61.9805 105.105C61.8711 105.496 61.8164 105.945 61.8164 106.453V107.004C61.8164 107.516 61.8711 107.969 61.9805 108.363C62.0898 108.754 62.2461 109.084 62.4492 109.354C62.6562 109.619 62.9004 109.82 63.1816 109.957C63.4668 110.094 63.7852 110.162 64.1367 110.162C64.5039 110.162 64.8301 110.094 65.1152 109.957C65.4004 109.82 65.6406 109.619 65.8359 109.354C66.0352 109.084 66.1855 108.754 66.2871 108.363C66.3887 107.969 66.4395 107.516 66.4395 107.004ZM75.9345 102.469V111H74.7977L70.5028 104.42V111H69.372V102.469H70.5028L74.8153 109.066V102.469H75.9345ZM80.367 111H78.5857L78.5974 110.08H80.367C80.9763 110.08 81.4841 109.953 81.8904 109.699C82.2966 109.441 82.6013 109.082 82.8045 108.621C83.0115 108.156 83.115 107.613 83.115 106.992V106.471C83.115 105.982 83.0564 105.549 82.9392 105.17C82.822 104.787 82.6502 104.465 82.4236 104.203C82.197 103.938 81.9197 103.736 81.5916 103.6C81.2673 103.463 80.8943 103.395 80.4724 103.395H78.5505V102.469H80.4724C81.031 102.469 81.5408 102.562 82.0017 102.75C82.4627 102.934 82.8591 103.201 83.1912 103.553C83.5271 103.9 83.7849 104.322 83.9646 104.818C84.1443 105.311 84.2341 105.865 84.2341 106.482V106.992C84.2341 107.609 84.1443 108.166 83.9646 108.662C83.7849 109.154 83.5252 109.574 83.1853 109.922C82.8494 110.27 82.4431 110.537 81.9666 110.725C81.4939 110.908 80.9607 111 80.367 111ZM79.1892 102.469V111H78.0584V102.469H79.1892ZM89.0827 103.225L86.2584 111H85.1041L88.3561 102.469H89.1002L89.0827 103.225ZM91.4498 111L88.6198 103.225L88.6022 102.469H89.3463L92.61 111H91.4498ZM91.3034 107.842V108.768H86.5104V107.842H91.3034ZM93.7261 110.426C93.7261 110.242 93.7827 110.088 93.896 109.963C94.0132 109.834 94.1812 109.77 94.3999 109.77C94.6187 109.77 94.7847 109.834 94.898 109.963C95.0152 110.088 95.0737 110.242 95.0737 110.426C95.0737 110.605 95.0152 110.758 94.898 110.883C94.7847 111.008 94.6187 111.07 94.3999 111.07C94.1812 111.07 94.0132 111.008 93.896 110.883C93.7827 110.758 93.7261 110.605 93.7261 110.426Z" fill="white"/>
<g clip-path="url(#clip1_1160_33)">
<path d="M126.807 181.056L126.807 184.237C126.807 184.304 126.834 184.367 126.881 184.414C126.927 184.461 126.991 184.488 127.057 184.488C127.124 184.488 127.187 184.461 127.234 184.414C127.281 184.367 127.308 184.304 127.308 184.237L127.307 181.659L130.77 185.121C130.817 185.168 130.88 185.195 130.946 185.195C131.013 185.195 131.076 185.168 131.123 185.121C131.17 185.074 131.196 185.011 131.196 184.945C131.196 184.878 131.17 184.815 131.123 184.768L127.661 181.305L130.239 181.306C130.306 181.306 130.369 181.279 130.416 181.232C130.463 181.185 130.49 181.122 130.49 181.056C130.49 180.989 130.463 180.926 130.416 180.879C130.369 180.832 130.306 180.805 130.239 180.805L127.057 180.805C127.025 180.805 126.992 180.812 126.962 180.824C126.931 180.837 126.904 180.855 126.88 180.879C126.857 180.902 126.839 180.929 126.826 180.96C126.814 180.99 126.807 181.023 126.807 181.056Z" fill="white"/>
</g>
<g clip-path="url(#clip2_1160_33)">
<path d="M30.9464 180.805L27.7645 180.805C27.6981 180.805 27.6345 180.831 27.5876 180.878C27.5407 180.925 27.5143 180.989 27.5143 181.055C27.5143 181.121 27.5407 181.185 27.5876 181.232C27.6345 181.279 27.6981 181.305 27.7645 181.305L30.343 181.305L26.8806 184.767C26.8337 184.814 26.8073 184.878 26.8073 184.944C26.8073 185.01 26.8337 185.074 26.8806 185.121C26.9275 185.168 26.991 185.194 27.0573 185.194C27.1237 185.194 27.1872 185.168 27.2341 185.121L30.6965 181.658L30.6963 184.237C30.6963 184.303 30.7227 184.367 30.7696 184.414C30.8165 184.461 30.8801 184.487 30.9464 184.487C31.0128 184.487 31.0764 184.461 31.1233 184.414C31.1702 184.367 31.1966 184.303 31.1966 184.237L31.1966 181.055C31.1966 181.022 31.1901 180.99 31.1776 180.959C31.165 180.929 31.1466 180.901 31.1234 180.878C31.1001 180.855 31.0725 180.836 31.0422 180.824C31.0118 180.811 30.9793 180.805 30.9464 180.805Z" fill="white"/>
</g>
<g clip-path="url(#clip3_1160_33)">
<path d="M126.807 32.9445L126.807 29.7625C126.807 29.6962 126.834 29.6325 126.881 29.5856C126.927 29.5387 126.991 29.5124 127.057 29.5124C127.124 29.5124 127.187 29.5387 127.234 29.5856C127.281 29.6325 127.308 29.6962 127.308 29.7625L127.307 32.341L130.77 28.8786C130.817 28.8317 130.88 28.8054 130.946 28.8054C131.013 28.8054 131.076 28.8317 131.123 28.8786C131.17 28.9255 131.196 28.9891 131.196 29.0554C131.196 29.1217 131.17 29.1853 131.123 29.2322L127.661 32.6946L130.239 32.6943C130.306 32.6943 130.369 32.7207 130.416 32.7676C130.463 32.8145 130.49 32.8781 130.49 32.9445C130.49 33.0108 130.463 33.0744 130.416 33.1214C130.369 33.1683 130.306 33.1946 130.239 33.1946L127.057 33.1946C127.025 33.1946 126.992 33.1882 126.962 33.1756C126.931 33.1631 126.904 33.1446 126.88 33.1214C126.857 33.0982 126.839 33.0706 126.826 33.0402C126.814 33.0099 126.807 32.9773 126.807 32.9445Z" fill="white"/>
</g>
<g clip-path="url(#clip4_1160_33)">
<path d="M31.1928 32.9445L31.1928 29.7625C31.1928 29.6962 31.1664 29.6325 31.1195 29.5856C31.0726 29.5387 31.009 29.5124 30.9426 29.5124C30.8763 29.5124 30.8127 29.5387 30.7657 29.5856C30.7188 29.6325 30.6925 29.6962 30.6925 29.7625L30.6927 32.341L27.2303 28.8786C27.1834 28.8317 27.1198 28.8054 27.0535 28.8054C26.9872 28.8054 26.9236 28.8317 26.8768 28.8786C26.8299 28.9255 26.8035 28.9891 26.8035 29.0554C26.8035 29.1217 26.8299 29.1853 26.8768 29.2322L30.3391 32.6946L27.7606 32.6943C27.6943 32.6943 27.6307 32.7207 27.5838 32.7676C27.5369 32.8145 27.5105 32.8781 27.5105 32.9445C27.5105 33.0108 27.5369 33.0744 27.5838 33.1214C27.6307 33.1683 27.6943 33.1946 27.7606 33.1946L30.9426 33.1946C30.9755 33.1946 31.008 33.1882 31.0384 33.1756C31.0687 33.1631 31.0963 33.1446 31.1195 33.1214C31.1428 33.0982 31.1612 33.0706 31.1738 33.0402C31.1863 33.0099 31.1928 32.9773 31.1928 32.9445Z" fill="white"/>
</g>
</g>
<defs>
<filter id="filter0_d_1160_33" x="0" y="0" width="162" height="214" filterUnits="userSpaceOnUse" color-interpolation-filters="sRGB">
<feFlood flood-opacity="0" result="BackgroundImageFix"/>
<feColorMatrix in="SourceAlpha" type="matrix" values="0 0 0 0 0 0 0 0 0 0 0 0 0 0 0 0 0 0 127 0" result="hardAlpha"/>
<feOffset dx="2"/>
<feGaussianBlur stdDeviation="12.5"/>
<feComposite in2="hardAlpha" operator="out"/>
<feColorMatrix type="matrix" values="0 0 0 0 0 0 0 0 0 0 0 0 0 0 0 0 0 0 0.05 0"/>
<feBlend mode="normal" in2="BackgroundImageFix" result="effect1_dropShadow_1160_33"/>
<feBlend mode="normal" in="SourceGraphic" in2="effect1_dropShadow_1160_33" result="shape"/>
</filter>
<clipPath id="clip0_1160_33">
<rect width="112" height="164" fill="white" transform="matrix(-1 0 0 -1 135 189)"/>
</clipPath>
<clipPath id="clip1_1160_33">
<rect width="8" height="8" fill="white" transform="matrix(-0.707107 -0.707107 -0.707107 0.707107 134.657 183)"/>
</clipPath>
<clipPath id="clip2_1160_33">
<rect width="8" height="8" fill="white" transform="matrix(0.707107 -0.707107 -0.707107 -0.707107 29 188.656)"/>
</clipPath>
<clipPath id="clip3_1160_33">
<rect width="8" height="8" fill="white" transform="translate(134.657 31) rotate(135)"/>
</clipPath>
<clipPath id="clip4_1160_33">
<rect width="8" height="8" fill="white" transform="matrix(0.707107 0.707107 0.707107 -0.707107 23.3433 31)"/>
</clipPath>
</defs>
</svg>
