<svg width="162" height="214" viewBox="0 0 162 214" fill="none" xmlns="http://www.w3.org/2000/svg">
<g clip-path="url(#clip0_1160_193)" filter="url(#filter0_d_1160_193)">
<rect width="112" height="164" transform="matrix(-1 0 0 -1 135 189)" fill="#1F1F1F"/>
<path d="M68.2949 106.752V109.875C68.1895 110.031 68.0215 110.207 67.791 110.402C67.5605 110.594 67.2422 110.762 66.8359 110.906C66.4336 111.047 65.9141 111.117 65.2773 111.117C64.7578 111.117 64.2793 111.027 63.8418 110.848C63.4082 110.664 63.0312 110.398 62.7109 110.051C62.3945 109.699 62.1484 109.273 61.9727 108.773C61.8008 108.27 61.7148 107.699 61.7148 107.062V106.4C61.7148 105.764 61.7891 105.195 61.9375 104.695C62.0898 104.195 62.3125 103.771 62.6055 103.424C62.8984 103.072 63.2578 102.807 63.6836 102.627C64.1094 102.443 64.5977 102.352 65.1484 102.352C65.8008 102.352 66.3457 102.465 66.7832 102.691C67.2246 102.914 67.5684 103.223 67.8145 103.617C68.0645 104.012 68.2246 104.461 68.2949 104.965H67.1641C67.1133 104.656 67.0117 104.375 66.8594 104.121C66.7109 103.867 66.498 103.664 66.2207 103.512C65.9434 103.355 65.5859 103.277 65.1484 103.277C64.7539 103.277 64.4121 103.35 64.123 103.494C63.834 103.639 63.5957 103.846 63.4082 104.115C63.2207 104.385 63.0801 104.711 62.9863 105.094C62.8965 105.477 62.8516 105.908 62.8516 106.389V107.062C62.8516 107.555 62.9082 107.994 63.0215 108.381C63.1387 108.768 63.3047 109.098 63.5195 109.371C63.7344 109.641 63.9902 109.846 64.2871 109.986C64.5879 110.127 64.9199 110.197 65.2832 110.197C65.6855 110.197 66.0117 110.164 66.2617 110.098C66.5117 110.027 66.707 109.945 66.8477 109.852C66.9883 109.754 67.0957 109.662 67.1699 109.576V107.666H65.1953V106.752H68.2949ZM75.1708 102.469H76.2958V108.24C76.2958 108.881 76.1532 109.414 75.868 109.84C75.5829 110.266 75.204 110.586 74.7313 110.801C74.2626 111.012 73.7528 111.117 73.202 111.117C72.6239 111.117 72.1005 111.012 71.6317 110.801C71.1669 110.586 70.7977 110.266 70.5243 109.84C70.2548 109.414 70.12 108.881 70.12 108.24V102.469H71.2391V108.24C71.2391 108.686 71.3212 109.053 71.4852 109.342C71.6493 109.631 71.8778 109.846 72.1708 109.986C72.4677 110.127 72.8114 110.197 73.202 110.197C73.5966 110.197 73.9403 110.127 74.2333 109.986C74.5302 109.846 74.7606 109.631 74.9247 109.342C75.0887 109.053 75.1708 108.686 75.1708 108.24V102.469ZM83.9158 110.08V111H78.1384V110.08H83.9158ZM83.7283 103.289L78.408 111H77.7107V110.156L83.0252 102.469H83.7283V103.289ZM83.2478 102.469V103.395H77.7869V102.469H83.2478ZM91.9225 106.465V107.004C91.9225 107.645 91.8424 108.219 91.6823 108.727C91.5221 109.234 91.2916 109.666 90.9909 110.021C90.6901 110.377 90.3288 110.648 89.9069 110.836C89.4889 111.023 89.0202 111.117 88.5006 111.117C87.9967 111.117 87.5338 111.023 87.112 110.836C86.694 110.648 86.3307 110.377 86.0221 110.021C85.7174 109.666 85.4811 109.234 85.3131 108.727C85.1452 108.219 85.0612 107.645 85.0612 107.004V106.465C85.0612 105.824 85.1432 105.252 85.3073 104.748C85.4752 104.24 85.7116 103.809 86.0163 103.453C86.3209 103.094 86.6823 102.82 87.1002 102.633C87.5221 102.445 87.985 102.352 88.4889 102.352C89.0084 102.352 89.4772 102.445 89.8952 102.633C90.317 102.82 90.6784 103.094 90.9791 103.453C91.2838 103.809 91.5163 104.24 91.6764 104.748C91.8405 105.252 91.9225 105.824 91.9225 106.465ZM90.8034 107.004V106.453C90.8034 105.945 90.7506 105.496 90.6452 105.105C90.5436 104.715 90.3932 104.387 90.194 104.121C89.9948 103.855 89.7506 103.654 89.4616 103.518C89.1764 103.381 88.8522 103.312 88.4889 103.312C88.1373 103.312 87.819 103.381 87.5338 103.518C87.2526 103.654 87.0104 103.855 86.8073 104.121C86.608 104.387 86.4538 104.715 86.3444 105.105C86.235 105.496 86.1803 105.945 86.1803 106.453V107.004C86.1803 107.516 86.235 107.969 86.3444 108.363C86.4538 108.754 86.61 109.084 86.8131 109.354C87.0202 109.619 87.2643 109.82 87.5455 109.957C87.8307 110.094 88.1491 110.162 88.5006 110.162C88.8678 110.162 89.194 110.094 89.4791 109.957C89.7643 109.82 90.0045 109.619 90.1998 109.354C90.3991 109.084 90.5495 108.754 90.651 108.363C90.7526 107.969 90.8034 107.516 90.8034 107.004ZM92.9917 110.426C92.9917 110.242 93.0484 110.088 93.1616 109.963C93.2788 109.834 93.4468 109.77 93.6655 109.77C93.8843 109.77 94.0503 109.834 94.1636 109.963C94.2808 110.088 94.3394 110.242 94.3394 110.426C94.3394 110.605 94.2808 110.758 94.1636 110.883C94.0503 111.008 93.8843 111.07 93.6655 111.07C93.4468 111.07 93.2788 111.008 93.1616 110.883C93.0484 110.758 92.9917 110.605 92.9917 110.426Z" fill="white"/>
<g clip-path="url(#clip1_1160_193)">
<path d="M126.807 181.056L126.807 184.237C126.807 184.304 126.834 184.367 126.881 184.414C126.927 184.461 126.991 184.488 127.057 184.488C127.124 184.488 127.187 184.461 127.234 184.414C127.281 184.367 127.308 184.304 127.308 184.237L127.307 181.659L130.77 185.121C130.817 185.168 130.88 185.195 130.946 185.195C131.013 185.195 131.076 185.168 131.123 185.121C131.17 185.074 131.196 185.011 131.196 184.945C131.196 184.878 131.17 184.815 131.123 184.768L127.661 181.305L130.239 181.306C130.306 181.306 130.369 181.279 130.416 181.232C130.463 181.185 130.49 181.122 130.49 181.056C130.49 180.989 130.463 180.926 130.416 180.879C130.369 180.832 130.306 180.805 130.239 180.805L127.057 180.805C127.025 180.805 126.992 180.812 126.962 180.824C126.931 180.837 126.904 180.855 126.88 180.879C126.857 180.902 126.839 180.929 126.826 180.96C126.814 180.99 126.807 181.023 126.807 181.056Z" fill="white"/>
</g>
<g clip-path="url(#clip2_1160_193)">
<path d="M30.9464 180.805L27.7645 180.805C27.6981 180.805 27.6345 180.831 27.5876 180.878C27.5407 180.925 27.5143 180.989 27.5143 181.055C27.5143 181.121 27.5407 181.185 27.5876 181.232C27.6345 181.279 27.6981 181.305 27.7645 181.305L30.343 181.305L26.8806 184.767C26.8337 184.814 26.8073 184.878 26.8073 184.944C26.8073 185.01 26.8337 185.074 26.8806 185.121C26.9275 185.168 26.991 185.194 27.0573 185.194C27.1237 185.194 27.1872 185.168 27.2341 185.121L30.6965 181.658L30.6963 184.237C30.6963 184.303 30.7227 184.367 30.7696 184.414C30.8165 184.461 30.8801 184.487 30.9464 184.487C31.0128 184.487 31.0764 184.461 31.1233 184.414C31.1702 184.367 31.1966 184.303 31.1966 184.237L31.1966 181.055C31.1966 181.022 31.1901 180.99 31.1776 180.959C31.165 180.929 31.1466 180.901 31.1234 180.878C31.1001 180.855 31.0725 180.836 31.0422 180.824C31.0118 180.811 30.9793 180.805 30.9464 180.805Z" fill="white"/>
</g>
<g clip-path="url(#clip3_1160_193)">
<path d="M126.807 32.9445L126.807 29.7625C126.807 29.6962 126.834 29.6325 126.881 29.5856C126.927 29.5387 126.991 29.5124 127.057 29.5124C127.124 29.5124 127.187 29.5387 127.234 29.5856C127.281 29.6325 127.308 29.6962 127.308 29.7625L127.307 32.341L130.77 28.8786C130.817 28.8317 130.88 28.8054 130.946 28.8054C131.013 28.8054 131.076 28.8317 131.123 28.8786C131.17 28.9255 131.196 28.9891 131.196 29.0554C131.196 29.1217 131.17 29.1853 131.123 29.2322L127.661 32.6946L130.239 32.6943C130.306 32.6943 130.369 32.7207 130.416 32.7676C130.463 32.8145 130.49 32.8781 130.49 32.9445C130.49 33.0108 130.463 33.0744 130.416 33.1214C130.369 33.1683 130.306 33.1946 130.239 33.1946L127.057 33.1946C127.025 33.1946 126.992 33.1882 126.962 33.1756C126.931 33.1631 126.904 33.1446 126.88 33.1214C126.857 33.0982 126.839 33.0706 126.826 33.0402C126.814 33.0099 126.807 32.9773 126.807 32.9445Z" fill="white"/>
</g>
<g clip-path="url(#clip4_1160_193)">
<path d="M31.1928 32.9445L31.1928 29.7625C31.1928 29.6962 31.1664 29.6325 31.1195 29.5856C31.0726 29.5387 31.009 29.5124 30.9426 29.5124C30.8763 29.5124 30.8127 29.5387 30.7657 29.5856C30.7188 29.6325 30.6925 29.6962 30.6925 29.7625L30.6927 32.341L27.2303 28.8786C27.1834 28.8317 27.1198 28.8054 27.0535 28.8054C26.9872 28.8054 26.9236 28.8317 26.8768 28.8786C26.8299 28.9255 26.8035 28.9891 26.8035 29.0554C26.8035 29.1217 26.8299 29.1853 26.8768 29.2322L30.3391 32.6946L27.7606 32.6943C27.6943 32.6943 27.6307 32.7207 27.5838 32.7676C27.5369 32.8145 27.5105 32.8781 27.5105 32.9445C27.5105 33.0108 27.5369 33.0744 27.5838 33.1214C27.6307 33.1683 27.6943 33.1946 27.7606 33.1946L30.9426 33.1946C30.9755 33.1946 31.008 33.1882 31.0384 33.1756C31.0687 33.1631 31.0963 33.1446 31.1195 33.1214C31.1428 33.0982 31.1612 33.0706 31.1738 33.0402C31.1863 33.0099 31.1928 32.9773 31.1928 32.9445Z" fill="white"/>
</g>
</g>
<defs>
<filter id="filter0_d_1160_193" x="0" y="0" width="162" height="214" filterUnits="userSpaceOnUse" color-interpolation-filters="sRGB">
<feFlood flood-opacity="0" result="BackgroundImageFix"/>
<feColorMatrix in="SourceAlpha" type="matrix" values="0 0 0 0 0 0 0 0 0 0 0 0 0 0 0 0 0 0 127 0" result="hardAlpha"/>
<feOffset dx="2"/>
<feGaussianBlur stdDeviation="12.5"/>
<feComposite in2="hardAlpha" operator="out"/>
<feColorMatrix type="matrix" values="0 0 0 0 0 0 0 0 0 0 0 0 0 0 0 0 0 0 0.05 0"/>
<feBlend mode="normal" in2="BackgroundImageFix" result="effect1_dropShadow_1160_193"/>
<feBlend mode="normal" in="SourceGraphic" in2="effect1_dropShadow_1160_193" result="shape"/>
</filter>
<clipPath id="clip0_1160_193">
<rect width="112" height="164" fill="white" transform="matrix(-1 0 0 -1 135 189)"/>
</clipPath>
<clipPath id="clip1_1160_193">
<rect width="8" height="8" fill="white" transform="matrix(-0.707107 -0.707107 -0.707107 0.707107 134.657 183)"/>
</clipPath>
<clipPath id="clip2_1160_193">
<rect width="8" height="8" fill="white" transform="matrix(0.707107 -0.707107 -0.707107 -0.707107 29 188.656)"/>
</clipPath>
<clipPath id="clip3_1160_193">
<rect width="8" height="8" fill="white" transform="translate(134.657 31) rotate(135)"/>
</clipPath>
<clipPath id="clip4_1160_193">
<rect width="8" height="8" fill="white" transform="matrix(0.707107 0.707107 0.707107 -0.707107 23.3433 31)"/>
</clipPath>
</defs>
</svg>
