<svg width="162" height="214" viewBox="0 0 162 214" fill="none" xmlns="http://www.w3.org/2000/svg">
<g clip-path="url(#clip0_1160_163)" filter="url(#filter0_d_1160_163)">
<rect width="112" height="164" transform="matrix(-1 0 0 -1 135 189)" fill="#1F1F1F"/>
<path d="M51.1211 102.469V111H49.9902V102.469H51.1211ZM54.6953 106.307V107.232H50.875V106.307H54.6953ZM55.2754 102.469V103.395H50.875V102.469H55.2754ZM61.9169 110.08V111H57.6512V110.08H61.9169ZM57.8739 102.469V111H56.743V102.469H57.8739ZM66.6072 103.225L63.783 111H62.6287L65.8806 102.469H66.6248L66.6072 103.225ZM68.9744 111L66.1443 103.225L66.1267 102.469H66.8709L70.1345 111H68.9744ZM68.8279 107.842V108.768H64.0349V107.842H68.8279ZM72.528 102.469V111H71.3971V102.469H72.528ZM77.6784 102.469L74.1334 106.447L72.1413 108.516L71.9538 107.309L73.4538 105.656L76.319 102.469H77.6784ZM76.5885 111L73.4303 106.84L74.1041 105.943L77.9362 111H76.5885ZM80.1831 102.469V111H79.0523V102.469H80.1831ZM85.3335 102.469L81.7886 106.447L79.7964 108.516L79.6089 107.309L81.1089 105.656L83.9741 102.469H85.3335ZM84.2437 111L81.0855 106.84L81.7593 105.943L85.5913 111H84.2437ZM89.8656 103.225L87.0414 111H85.8871L89.1391 102.469H89.8832L89.8656 103.225ZM92.2328 111L89.4027 103.225L89.3852 102.469H90.1293L93.393 111H92.2328ZM92.0863 107.842V108.768H87.2934V107.842H92.0863ZM94.6555 102.469H97.4798C98.1204 102.469 98.6614 102.566 99.1028 102.762C99.5481 102.957 99.886 103.246 100.116 103.629C100.351 104.008 100.468 104.475 100.468 105.029C100.468 105.42 100.388 105.777 100.228 106.102C100.072 106.422 99.845 106.695 99.5481 106.922C99.2552 107.145 98.9036 107.311 98.4934 107.42L98.177 107.543H95.5227L95.511 106.623H97.5149C97.9212 106.623 98.2591 106.553 98.5286 106.412C98.7981 106.268 99.0013 106.074 99.138 105.832C99.2747 105.59 99.343 105.322 99.343 105.029C99.343 104.701 99.2786 104.414 99.1497 104.168C99.0208 103.922 98.8177 103.732 98.5403 103.6C98.2669 103.463 97.9134 103.395 97.4798 103.395H95.7864V111H94.6555V102.469ZM99.6419 111L97.5677 107.133L98.7454 107.127L100.849 110.93V111H99.6419ZM103.383 102.469V111H102.252V102.469H103.383ZM105.413 110.426C105.413 110.242 105.47 110.088 105.583 109.963C105.7 109.834 105.868 109.77 106.087 109.77C106.306 109.77 106.472 109.834 106.585 109.963C106.702 110.088 106.761 110.242 106.761 110.426C106.761 110.605 106.702 110.758 106.585 110.883C106.472 111.008 106.306 111.07 106.087 111.07C105.868 111.07 105.7 111.008 105.583 110.883C105.47 110.758 105.413 110.605 105.413 110.426Z" fill="white"/>
<g clip-path="url(#clip1_1160_163)">
<path d="M126.807 181.056L126.807 184.237C126.807 184.304 126.834 184.367 126.881 184.414C126.927 184.461 126.991 184.488 127.057 184.488C127.124 184.488 127.187 184.461 127.234 184.414C127.281 184.367 127.308 184.304 127.308 184.237L127.307 181.659L130.77 185.121C130.817 185.168 130.88 185.195 130.946 185.195C131.013 185.195 131.076 185.168 131.123 185.121C131.17 185.074 131.196 185.011 131.196 184.945C131.196 184.878 131.17 184.815 131.123 184.768L127.661 181.305L130.239 181.306C130.306 181.306 130.369 181.279 130.416 181.232C130.463 181.185 130.49 181.122 130.49 181.056C130.49 180.989 130.463 180.926 130.416 180.879C130.369 180.832 130.306 180.805 130.239 180.805L127.057 180.805C127.025 180.805 126.992 180.812 126.962 180.824C126.931 180.837 126.904 180.855 126.88 180.879C126.857 180.902 126.839 180.929 126.826 180.96C126.814 180.99 126.807 181.023 126.807 181.056Z" fill="white"/>
</g>
<g clip-path="url(#clip2_1160_163)">
<path d="M30.9464 180.805L27.7645 180.805C27.6981 180.805 27.6345 180.831 27.5876 180.878C27.5407 180.925 27.5143 180.989 27.5143 181.055C27.5143 181.121 27.5407 181.185 27.5876 181.232C27.6345 181.279 27.6981 181.305 27.7645 181.305L30.343 181.305L26.8806 184.767C26.8337 184.814 26.8073 184.878 26.8073 184.944C26.8073 185.01 26.8337 185.074 26.8806 185.121C26.9275 185.168 26.991 185.194 27.0573 185.194C27.1237 185.194 27.1872 185.168 27.2341 185.121L30.6965 181.658L30.6963 184.237C30.6963 184.303 30.7227 184.367 30.7696 184.414C30.8165 184.461 30.8801 184.487 30.9464 184.487C31.0128 184.487 31.0764 184.461 31.1233 184.414C31.1702 184.367 31.1966 184.303 31.1966 184.237L31.1966 181.055C31.1966 181.022 31.1901 180.99 31.1776 180.959C31.165 180.929 31.1466 180.901 31.1234 180.878C31.1001 180.855 31.0725 180.836 31.0422 180.824C31.0118 180.811 30.9793 180.805 30.9464 180.805Z" fill="white"/>
</g>
<g clip-path="url(#clip3_1160_163)">
<path d="M126.807 32.9445L126.807 29.7625C126.807 29.6962 126.834 29.6325 126.881 29.5856C126.927 29.5387 126.991 29.5124 127.057 29.5124C127.124 29.5124 127.187 29.5387 127.234 29.5856C127.281 29.6325 127.308 29.6962 127.308 29.7625L127.307 32.341L130.77 28.8786C130.817 28.8317 130.88 28.8054 130.946 28.8054C131.013 28.8054 131.076 28.8317 131.123 28.8786C131.17 28.9255 131.196 28.9891 131.196 29.0554C131.196 29.1217 131.17 29.1853 131.123 29.2322L127.661 32.6946L130.239 32.6943C130.306 32.6943 130.369 32.7207 130.416 32.7676C130.463 32.8145 130.49 32.8781 130.49 32.9445C130.49 33.0108 130.463 33.0744 130.416 33.1214C130.369 33.1683 130.306 33.1946 130.239 33.1946L127.057 33.1946C127.025 33.1946 126.992 33.1882 126.962 33.1756C126.931 33.1631 126.904 33.1446 126.88 33.1214C126.857 33.0982 126.839 33.0706 126.826 33.0402C126.814 33.0099 126.807 32.9773 126.807 32.9445Z" fill="white"/>
</g>
<g clip-path="url(#clip4_1160_163)">
<path d="M31.1928 32.9445L31.1928 29.7625C31.1928 29.6962 31.1664 29.6325 31.1195 29.5856C31.0726 29.5387 31.009 29.5124 30.9426 29.5124C30.8763 29.5124 30.8127 29.5387 30.7657 29.5856C30.7188 29.6325 30.6925 29.6962 30.6925 29.7625L30.6927 32.341L27.2303 28.8786C27.1834 28.8317 27.1198 28.8054 27.0535 28.8054C26.9872 28.8054 26.9236 28.8317 26.8768 28.8786C26.8299 28.9255 26.8035 28.9891 26.8035 29.0554C26.8035 29.1217 26.8299 29.1853 26.8768 29.2322L30.3391 32.6946L27.7606 32.6943C27.6943 32.6943 27.6307 32.7207 27.5838 32.7676C27.5369 32.8145 27.5105 32.8781 27.5105 32.9445C27.5105 33.0108 27.5369 33.0744 27.5838 33.1214C27.6307 33.1683 27.6943 33.1946 27.7606 33.1946L30.9426 33.1946C30.9755 33.1946 31.008 33.1882 31.0384 33.1756C31.0687 33.1631 31.0963 33.1446 31.1195 33.1214C31.1428 33.0982 31.1612 33.0706 31.1738 33.0402C31.1863 33.0099 31.1928 32.9773 31.1928 32.9445Z" fill="white"/>
</g>
</g>
<defs>
<filter id="filter0_d_1160_163" x="0" y="0" width="162" height="214" filterUnits="userSpaceOnUse" color-interpolation-filters="sRGB">
<feFlood flood-opacity="0" result="BackgroundImageFix"/>
<feColorMatrix in="SourceAlpha" type="matrix" values="0 0 0 0 0 0 0 0 0 0 0 0 0 0 0 0 0 0 127 0" result="hardAlpha"/>
<feOffset dx="2"/>
<feGaussianBlur stdDeviation="12.5"/>
<feComposite in2="hardAlpha" operator="out"/>
<feColorMatrix type="matrix" values="0 0 0 0 0 0 0 0 0 0 0 0 0 0 0 0 0 0 0.05 0"/>
<feBlend mode="normal" in2="BackgroundImageFix" result="effect1_dropShadow_1160_163"/>
<feBlend mode="normal" in="SourceGraphic" in2="effect1_dropShadow_1160_163" result="shape"/>
</filter>
<clipPath id="clip0_1160_163">
<rect width="112" height="164" fill="white" transform="matrix(-1 0 0 -1 135 189)"/>
</clipPath>
<clipPath id="clip1_1160_163">
<rect width="8" height="8" fill="white" transform="matrix(-0.707107 -0.707107 -0.707107 0.707107 134.657 183)"/>
</clipPath>
<clipPath id="clip2_1160_163">
<rect width="8" height="8" fill="white" transform="matrix(0.707107 -0.707107 -0.707107 -0.707107 29 188.656)"/>
</clipPath>
<clipPath id="clip3_1160_163">
<rect width="8" height="8" fill="white" transform="translate(134.657 31) rotate(135)"/>
</clipPath>
<clipPath id="clip4_1160_163">
<rect width="8" height="8" fill="white" transform="matrix(0.707107 0.707107 0.707107 -0.707107 23.3433 31)"/>
</clipPath>
</defs>
</svg>
