<svg width="162" height="214" viewBox="0 0 162 214" fill="none" xmlns="http://www.w3.org/2000/svg">
<g clip-path="url(#clip0_1160_2)" filter="url(#filter0_d_1160_2)">
<rect width="112" height="164" transform="matrix(-1 0 0 -1 135 189)" fill="#1F1F1F"/>
<path d="M55.2344 108.422L56.9277 102.469H57.748L57.2734 104.783L55.4512 111H54.6367L55.2344 108.422ZM53.4824 102.469L54.8301 108.305L55.2344 111H54.4258L52.3574 102.469H53.4824ZM59.9395 108.299L61.2578 102.469H62.3887L60.3262 111H59.5176L59.9395 108.299ZM57.8711 102.469L59.5176 108.422L60.1152 111H59.3008L57.543 104.783L57.0625 102.469H57.8711ZM66.663 103.225L63.8387 111H62.6845L65.9364 102.469H66.6805L66.663 103.225ZM69.0302 111L66.2001 103.225L66.1825 102.469H66.9266L70.1903 111H69.0302ZM68.8837 107.842V108.768H64.0907V107.842H68.8837ZM78.0154 102.469V111H76.8787L72.5837 104.42V111H71.4529V102.469H72.5837L76.8962 109.066V102.469H78.0154ZM82.4479 111H80.6666L80.6784 110.08H82.4479C83.0573 110.08 83.5651 109.953 83.9713 109.699C84.3776 109.441 84.6823 109.082 84.8854 108.621C85.0924 108.156 85.1959 107.613 85.1959 106.992V106.471C85.1959 105.982 85.1373 105.549 85.0202 105.17C84.903 104.787 84.7311 104.465 84.5045 104.203C84.278 103.938 84.0006 103.736 83.6725 103.6C83.3483 103.463 82.9752 103.395 82.5534 103.395H80.6315V102.469H82.5534C83.112 102.469 83.6217 102.562 84.0827 102.75C84.5436 102.934 84.9401 103.201 85.2721 103.553C85.608 103.9 85.8659 104.322 86.0455 104.818C86.2252 105.311 86.3151 105.865 86.3151 106.482V106.992C86.3151 107.609 86.2252 108.166 86.0455 108.662C85.8659 109.154 85.6061 109.574 85.2663 109.922C84.9303 110.27 84.5241 110.537 84.0475 110.725C83.5748 110.908 83.0416 111 82.4479 111ZM81.2702 102.469V111H80.1393V102.469H81.2702ZM93.5542 110.08V111H89.0366V110.08H93.5542ZM89.2652 102.469V111H88.1343V102.469H89.2652ZM92.9566 106.137V107.057H89.0366V106.137H92.9566ZM93.4956 102.469V103.395H89.0366V102.469H93.4956ZM95.0746 102.469H97.8988C98.5395 102.469 99.0805 102.566 99.5219 102.762C99.9672 102.957 100.305 103.246 100.536 103.629C100.77 104.008 100.887 104.475 100.887 105.029C100.887 105.42 100.807 105.777 100.647 106.102C100.491 106.422 100.264 106.695 99.9672 106.922C99.6742 107.145 99.3227 107.311 98.9125 107.42L98.5961 107.543H95.9418L95.9301 106.623H97.934C98.3402 106.623 98.6781 106.553 98.9477 106.412C99.2172 106.268 99.4203 106.074 99.557 105.832C99.6937 105.59 99.7621 105.322 99.7621 105.029C99.7621 104.701 99.6977 104.414 99.5687 104.168C99.4398 103.922 99.2367 103.732 98.9594 103.6C98.6859 103.463 98.3324 103.395 97.8988 103.395H96.2055V111H95.0746V102.469ZM100.061 111L97.9867 107.133L99.1645 107.127L101.268 110.93V111H100.061ZM102.443 110.426C102.443 110.242 102.499 110.088 102.613 109.963C102.73 109.834 102.898 109.77 103.116 109.77C103.335 109.77 103.501 109.834 103.615 109.963C103.732 110.088 103.79 110.242 103.79 110.426C103.79 110.605 103.732 110.758 103.615 110.883C103.501 111.008 103.335 111.07 103.116 111.07C102.898 111.07 102.73 111.008 102.613 110.883C102.499 110.758 102.443 110.605 102.443 110.426Z" fill="white"/>
<g clip-path="url(#clip1_1160_2)">
<path d="M126.807 181.056L126.807 184.237C126.807 184.304 126.834 184.367 126.881 184.414C126.927 184.461 126.991 184.488 127.057 184.488C127.124 184.488 127.187 184.461 127.234 184.414C127.281 184.367 127.308 184.304 127.308 184.237L127.307 181.659L130.77 185.121C130.817 185.168 130.88 185.195 130.946 185.195C131.013 185.195 131.076 185.168 131.123 185.121C131.17 185.074 131.196 185.011 131.196 184.945C131.196 184.878 131.17 184.815 131.123 184.768L127.661 181.305L130.239 181.306C130.306 181.306 130.369 181.279 130.416 181.232C130.463 181.185 130.49 181.122 130.49 181.056C130.49 180.989 130.463 180.926 130.416 180.879C130.369 180.832 130.306 180.805 130.239 180.805L127.057 180.805C127.025 180.805 126.992 180.812 126.962 180.824C126.931 180.837 126.904 180.855 126.88 180.879C126.857 180.902 126.839 180.929 126.826 180.96C126.814 180.99 126.807 181.023 126.807 181.056Z" fill="white"/>
</g>
<g clip-path="url(#clip2_1160_2)">
<path d="M30.9464 180.805L27.7645 180.805C27.6981 180.805 27.6345 180.831 27.5876 180.878C27.5407 180.925 27.5143 180.989 27.5143 181.055C27.5143 181.121 27.5407 181.185 27.5876 181.232C27.6345 181.279 27.6981 181.305 27.7645 181.305L30.343 181.305L26.8806 184.767C26.8337 184.814 26.8073 184.878 26.8073 184.944C26.8073 185.01 26.8337 185.074 26.8806 185.121C26.9275 185.168 26.991 185.194 27.0573 185.194C27.1237 185.194 27.1872 185.168 27.2341 185.121L30.6965 181.658L30.6963 184.237C30.6963 184.303 30.7227 184.367 30.7696 184.414C30.8165 184.461 30.8801 184.487 30.9464 184.487C31.0128 184.487 31.0764 184.461 31.1233 184.414C31.1702 184.367 31.1966 184.303 31.1966 184.237L31.1966 181.055C31.1966 181.022 31.1901 180.99 31.1776 180.959C31.165 180.929 31.1466 180.901 31.1234 180.878C31.1001 180.855 31.0725 180.836 31.0422 180.824C31.0118 180.811 30.9793 180.805 30.9464 180.805Z" fill="white"/>
</g>
<g clip-path="url(#clip3_1160_2)">
<path d="M126.807 32.9445L126.807 29.7625C126.807 29.6962 126.834 29.6325 126.881 29.5856C126.927 29.5387 126.991 29.5124 127.057 29.5124C127.124 29.5124 127.187 29.5387 127.234 29.5856C127.281 29.6325 127.308 29.6962 127.308 29.7625L127.307 32.341L130.77 28.8786C130.817 28.8317 130.88 28.8054 130.946 28.8054C131.013 28.8054 131.076 28.8317 131.123 28.8786C131.17 28.9255 131.196 28.9891 131.196 29.0554C131.196 29.1217 131.17 29.1853 131.123 29.2322L127.661 32.6946L130.239 32.6943C130.306 32.6943 130.369 32.7207 130.416 32.7676C130.463 32.8145 130.49 32.8781 130.49 32.9445C130.49 33.0108 130.463 33.0744 130.416 33.1214C130.369 33.1683 130.306 33.1946 130.239 33.1946L127.057 33.1946C127.025 33.1946 126.992 33.1882 126.962 33.1756C126.931 33.1631 126.904 33.1446 126.88 33.1214C126.857 33.0982 126.839 33.0706 126.826 33.0402C126.814 33.0099 126.807 32.9773 126.807 32.9445Z" fill="white"/>
</g>
<g clip-path="url(#clip4_1160_2)">
<path d="M31.1928 32.9445L31.1928 29.7625C31.1928 29.6962 31.1664 29.6325 31.1195 29.5856C31.0726 29.5387 31.009 29.5124 30.9426 29.5124C30.8763 29.5124 30.8127 29.5387 30.7657 29.5856C30.7188 29.6325 30.6925 29.6962 30.6925 29.7625L30.6927 32.341L27.2303 28.8786C27.1834 28.8317 27.1198 28.8054 27.0535 28.8054C26.9872 28.8054 26.9236 28.8317 26.8768 28.8786C26.8299 28.9255 26.8035 28.9891 26.8035 29.0554C26.8035 29.1217 26.8299 29.1853 26.8768 29.2322L30.3391 32.6946L27.7606 32.6943C27.6943 32.6943 27.6307 32.7207 27.5838 32.7676C27.5369 32.8145 27.5105 32.8781 27.5105 32.9445C27.5105 33.0108 27.5369 33.0744 27.5838 33.1214C27.6307 33.1683 27.6943 33.1946 27.7606 33.1946L30.9426 33.1946C30.9755 33.1946 31.008 33.1882 31.0384 33.1756C31.0687 33.1631 31.0963 33.1446 31.1195 33.1214C31.1428 33.0982 31.1612 33.0706 31.1738 33.0402C31.1863 33.0099 31.1928 32.9773 31.1928 32.9445Z" fill="white"/>
</g>
</g>
<defs>
<filter id="filter0_d_1160_2" x="0" y="0" width="162" height="214" filterUnits="userSpaceOnUse" color-interpolation-filters="sRGB">
<feFlood flood-opacity="0" result="BackgroundImageFix"/>
<feColorMatrix in="SourceAlpha" type="matrix" values="0 0 0 0 0 0 0 0 0 0 0 0 0 0 0 0 0 0 127 0" result="hardAlpha"/>
<feOffset dx="2"/>
<feGaussianBlur stdDeviation="12.5"/>
<feComposite in2="hardAlpha" operator="out"/>
<feColorMatrix type="matrix" values="0 0 0 0 0 0 0 0 0 0 0 0 0 0 0 0 0 0 0.05 0"/>
<feBlend mode="normal" in2="BackgroundImageFix" result="effect1_dropShadow_1160_2"/>
<feBlend mode="normal" in="SourceGraphic" in2="effect1_dropShadow_1160_2" result="shape"/>
</filter>
<clipPath id="clip0_1160_2">
<rect width="112" height="164" fill="white" transform="matrix(-1 0 0 -1 135 189)"/>
</clipPath>
<clipPath id="clip1_1160_2">
<rect width="8" height="8" fill="white" transform="matrix(-0.707107 -0.707107 -0.707107 0.707107 134.657 183)"/>
</clipPath>
<clipPath id="clip2_1160_2">
<rect width="8" height="8" fill="white" transform="matrix(0.707107 -0.707107 -0.707107 -0.707107 29 188.656)"/>
</clipPath>
<clipPath id="clip3_1160_2">
<rect width="8" height="8" fill="white" transform="translate(134.657 31) rotate(135)"/>
</clipPath>
<clipPath id="clip4_1160_2">
<rect width="8" height="8" fill="white" transform="matrix(0.707107 0.707107 0.707107 -0.707107 23.3433 31)"/>
</clipPath>
</defs>
</svg>
