<svg width="162" height="214" viewBox="0 0 162 214" fill="none" xmlns="http://www.w3.org/2000/svg">
<g clip-path="url(#clip0_1160_63)" filter="url(#filter0_d_1160_63)">
<rect width="112" height="164" transform="matrix(-1 0 0 -1 135 189)" fill="#1F1F1F"/>
<path d="M51.1211 102.469V111H49.9902V102.469H51.1211ZM54.6953 106.307V107.232H50.875V106.307H54.6953ZM55.2754 102.469V103.395H50.875V102.469H55.2754ZM62.163 110.08V111H57.6454V110.08H62.163ZM57.8739 102.469V111H56.743V102.469H57.8739ZM61.5653 106.137V107.057H57.6454V106.137H61.5653ZM62.1044 102.469V103.395H57.6454V102.469H62.1044ZM63.6834 102.469H66.5076C67.1482 102.469 67.6892 102.566 68.1306 102.762C68.5759 102.957 68.9138 103.246 69.1443 103.629C69.3787 104.008 69.4959 104.475 69.4959 105.029C69.4959 105.42 69.4158 105.777 69.2556 106.102C69.0994 106.422 68.8728 106.695 68.5759 106.922C68.283 107.145 67.9314 107.311 67.5212 107.42L67.2048 107.543H64.5505L64.5388 106.623H66.5427C66.949 106.623 67.2869 106.553 67.5564 106.412C67.8259 106.268 68.0291 106.074 68.1658 105.832C68.3025 105.59 68.3709 105.322 68.3709 105.029C68.3709 104.701 68.3064 104.414 68.1775 104.168C68.0486 103.922 67.8455 103.732 67.5681 103.6C67.2947 103.463 66.9412 103.395 66.5076 103.395H64.8142V111H63.6834V102.469ZM68.6697 111L66.5955 107.133L67.7732 107.127L69.8767 110.93V111H68.6697ZM77.7604 102.469V111H76.6237L72.3288 104.42V111H71.1979V102.469H72.3288L76.6413 109.066V102.469H77.7604ZM82.1284 108.422L83.8218 102.469H84.6421L84.1675 104.783L82.3452 111H81.5308L82.1284 108.422ZM80.3765 102.469L81.7241 108.305L82.1284 111H81.3198L79.2515 102.469H80.3765ZM86.8335 108.299L88.1519 102.469H89.2827L87.2202 111H86.4116L86.8335 108.299ZM84.7652 102.469L86.4116 108.422L87.0093 111H86.1948L84.437 104.783L83.9566 102.469H84.7652ZM96.0766 110.08V111H91.559V110.08H96.0766ZM91.7875 102.469V111H90.6566V102.469H91.7875ZM95.4789 106.137V107.057H91.559V106.137H95.4789ZM96.018 102.469V103.395H91.559V102.469H96.018ZM103.169 106.137V107.057H98.552V106.137H103.169ZM98.7278 102.469V111H97.597V102.469H98.7278ZM104.154 102.469V111H103.029V102.469H104.154ZM106.137 110.426C106.137 110.242 106.194 110.088 106.307 109.963C106.424 109.834 106.592 109.77 106.811 109.77C107.029 109.77 107.195 109.834 107.309 109.963C107.426 110.088 107.485 110.242 107.485 110.426C107.485 110.605 107.426 110.758 107.309 110.883C107.195 111.008 107.029 111.07 106.811 111.07C106.592 111.07 106.424 111.008 106.307 110.883C106.194 110.758 106.137 110.605 106.137 110.426Z" fill="white"/>
<g clip-path="url(#clip1_1160_63)">
<path d="M126.807 181.056L126.807 184.237C126.807 184.304 126.834 184.367 126.881 184.414C126.927 184.461 126.991 184.488 127.057 184.488C127.124 184.488 127.187 184.461 127.234 184.414C127.281 184.367 127.308 184.304 127.308 184.237L127.307 181.659L130.77 185.121C130.817 185.168 130.88 185.195 130.946 185.195C131.013 185.195 131.076 185.168 131.123 185.121C131.17 185.074 131.196 185.011 131.196 184.945C131.196 184.878 131.17 184.815 131.123 184.768L127.661 181.305L130.239 181.306C130.306 181.306 130.369 181.279 130.416 181.232C130.463 181.185 130.49 181.122 130.49 181.056C130.49 180.989 130.463 180.926 130.416 180.879C130.369 180.832 130.306 180.805 130.239 180.805L127.057 180.805C127.025 180.805 126.992 180.812 126.962 180.824C126.931 180.837 126.904 180.855 126.88 180.879C126.857 180.902 126.839 180.929 126.826 180.96C126.814 180.99 126.807 181.023 126.807 181.056Z" fill="white"/>
</g>
<g clip-path="url(#clip2_1160_63)">
<path d="M30.9464 180.805L27.7645 180.805C27.6981 180.805 27.6345 180.831 27.5876 180.878C27.5407 180.925 27.5143 180.989 27.5143 181.055C27.5143 181.121 27.5407 181.185 27.5876 181.232C27.6345 181.279 27.6981 181.305 27.7645 181.305L30.343 181.305L26.8806 184.767C26.8337 184.814 26.8073 184.878 26.8073 184.944C26.8073 185.01 26.8337 185.074 26.8806 185.121C26.9275 185.168 26.991 185.194 27.0573 185.194C27.1237 185.194 27.1872 185.168 27.2341 185.121L30.6965 181.658L30.6963 184.237C30.6963 184.303 30.7227 184.367 30.7696 184.414C30.8165 184.461 30.8801 184.487 30.9464 184.487C31.0128 184.487 31.0764 184.461 31.1233 184.414C31.1702 184.367 31.1966 184.303 31.1966 184.237L31.1966 181.055C31.1966 181.022 31.1901 180.99 31.1776 180.959C31.165 180.929 31.1466 180.901 31.1234 180.878C31.1001 180.855 31.0725 180.836 31.0422 180.824C31.0118 180.811 30.9793 180.805 30.9464 180.805Z" fill="white"/>
</g>
<g clip-path="url(#clip3_1160_63)">
<path d="M126.807 32.9445L126.807 29.7625C126.807 29.6962 126.834 29.6325 126.881 29.5856C126.927 29.5387 126.991 29.5124 127.057 29.5124C127.124 29.5124 127.187 29.5387 127.234 29.5856C127.281 29.6325 127.308 29.6962 127.308 29.7625L127.307 32.341L130.77 28.8786C130.817 28.8317 130.88 28.8054 130.946 28.8054C131.013 28.8054 131.076 28.8317 131.123 28.8786C131.17 28.9255 131.196 28.9891 131.196 29.0554C131.196 29.1217 131.17 29.1853 131.123 29.2322L127.661 32.6946L130.239 32.6943C130.306 32.6943 130.369 32.7207 130.416 32.7676C130.463 32.8145 130.49 32.8781 130.49 32.9445C130.49 33.0108 130.463 33.0744 130.416 33.1214C130.369 33.1683 130.306 33.1946 130.239 33.1946L127.057 33.1946C127.025 33.1946 126.992 33.1882 126.962 33.1756C126.931 33.1631 126.904 33.1446 126.88 33.1214C126.857 33.0982 126.839 33.0706 126.826 33.0402C126.814 33.0099 126.807 32.9773 126.807 32.9445Z" fill="white"/>
</g>
<g clip-path="url(#clip4_1160_63)">
<path d="M31.1928 32.9445L31.1928 29.7625C31.1928 29.6962 31.1664 29.6325 31.1195 29.5856C31.0726 29.5387 31.009 29.5124 30.9426 29.5124C30.8763 29.5124 30.8127 29.5387 30.7657 29.5856C30.7188 29.6325 30.6925 29.6962 30.6925 29.7625L30.6927 32.341L27.2303 28.8786C27.1834 28.8317 27.1198 28.8054 27.0535 28.8054C26.9872 28.8054 26.9236 28.8317 26.8768 28.8786C26.8299 28.9255 26.8035 28.9891 26.8035 29.0554C26.8035 29.1217 26.8299 29.1853 26.8768 29.2322L30.3391 32.6946L27.7606 32.6943C27.6943 32.6943 27.6307 32.7207 27.5838 32.7676C27.5369 32.8145 27.5105 32.8781 27.5105 32.9445C27.5105 33.0108 27.5369 33.0744 27.5838 33.1214C27.6307 33.1683 27.6943 33.1946 27.7606 33.1946L30.9426 33.1946C30.9755 33.1946 31.008 33.1882 31.0384 33.1756C31.0687 33.1631 31.0963 33.1446 31.1195 33.1214C31.1428 33.0982 31.1612 33.0706 31.1738 33.0402C31.1863 33.0099 31.1928 32.9773 31.1928 32.9445Z" fill="white"/>
</g>
</g>
<defs>
<filter id="filter0_d_1160_63" x="0" y="0" width="162" height="214" filterUnits="userSpaceOnUse" color-interpolation-filters="sRGB">
<feFlood flood-opacity="0" result="BackgroundImageFix"/>
<feColorMatrix in="SourceAlpha" type="matrix" values="0 0 0 0 0 0 0 0 0 0 0 0 0 0 0 0 0 0 127 0" result="hardAlpha"/>
<feOffset dx="2"/>
<feGaussianBlur stdDeviation="12.5"/>
<feComposite in2="hardAlpha" operator="out"/>
<feColorMatrix type="matrix" values="0 0 0 0 0 0 0 0 0 0 0 0 0 0 0 0 0 0 0.05 0"/>
<feBlend mode="normal" in2="BackgroundImageFix" result="effect1_dropShadow_1160_63"/>
<feBlend mode="normal" in="SourceGraphic" in2="effect1_dropShadow_1160_63" result="shape"/>
</filter>
<clipPath id="clip0_1160_63">
<rect width="112" height="164" fill="white" transform="matrix(-1 0 0 -1 135 189)"/>
</clipPath>
<clipPath id="clip1_1160_63">
<rect width="8" height="8" fill="white" transform="matrix(-0.707107 -0.707107 -0.707107 0.707107 134.657 183)"/>
</clipPath>
<clipPath id="clip2_1160_63">
<rect width="8" height="8" fill="white" transform="matrix(0.707107 -0.707107 -0.707107 -0.707107 29 188.656)"/>
</clipPath>
<clipPath id="clip3_1160_63">
<rect width="8" height="8" fill="white" transform="translate(134.657 31) rotate(135)"/>
</clipPath>
<clipPath id="clip4_1160_63">
<rect width="8" height="8" fill="white" transform="matrix(0.707107 0.707107 0.707107 -0.707107 23.3433 31)"/>
</clipPath>
</defs>
</svg>
