<svg width="162" height="214" viewBox="0 0 162 214" fill="none" xmlns="http://www.w3.org/2000/svg">
<g clip-path="url(#clip0_1160_143)" filter="url(#filter0_d_1160_143)">
<rect width="112" height="164" transform="matrix(-1 0 0 -1 135 189)" fill="#1F1F1F"/>
<path d="M62.1641 110.08V111H57.8984V110.08H62.1641ZM58.1211 102.469V111H56.9902V102.469H58.1211ZM64.7919 102.469V111H63.661V102.469H64.7919ZM67.3259 102.469H68.4216L71.2166 109.424L74.0056 102.469H75.1072L71.6384 111H70.783L67.3259 102.469ZM66.9685 102.469H67.9353L68.0935 107.672V111H66.9685V102.469ZM74.492 102.469H75.4587V111H74.3337V107.672L74.492 102.469ZM78.778 102.469V111H77.6471V102.469H78.778ZM87.5171 102.469V111H86.3804L82.0855 104.42V111H80.9546V102.469H82.0855L86.398 109.066V102.469H87.5171ZM95.9457 106.752V109.875C95.8402 110.031 95.6723 110.207 95.4418 110.402C95.2113 110.594 94.893 110.762 94.4867 110.906C94.0844 111.047 93.5648 111.117 92.9281 111.117C92.4086 111.117 91.9301 111.027 91.4926 110.848C91.059 110.664 90.682 110.398 90.3617 110.051C90.0453 109.699 89.7992 109.273 89.6234 108.773C89.4516 108.27 89.3656 107.699 89.3656 107.062V106.4C89.3656 105.764 89.4398 105.195 89.5883 104.695C89.7406 104.195 89.9633 103.771 90.2562 103.424C90.5492 103.072 90.9086 102.807 91.3344 102.627C91.7602 102.443 92.2484 102.352 92.7992 102.352C93.4516 102.352 93.9965 102.465 94.434 102.691C94.8754 102.914 95.2191 103.223 95.4652 103.617C95.7152 104.012 95.8754 104.461 95.9457 104.965H94.8148C94.7641 104.656 94.6625 104.375 94.5102 104.121C94.3617 103.867 94.1488 103.664 93.8715 103.512C93.5941 103.355 93.2367 103.277 92.7992 103.277C92.4047 103.277 92.0629 103.35 91.7738 103.494C91.4848 103.639 91.2465 103.846 91.059 104.115C90.8715 104.385 90.7309 104.711 90.6371 105.094C90.5473 105.477 90.5023 105.908 90.5023 106.389V107.062C90.5023 107.555 90.559 107.994 90.6723 108.381C90.7895 108.768 90.9555 109.098 91.1703 109.371C91.3852 109.641 91.641 109.846 91.9379 109.986C92.2387 110.127 92.5707 110.197 92.934 110.197C93.3363 110.197 93.6625 110.164 93.9125 110.098C94.1625 110.027 94.3578 109.945 94.4984 109.852C94.6391 109.754 94.7465 109.662 94.8207 109.576V107.666H92.8461V106.752H95.9457ZM97.7942 110.426C97.7942 110.242 97.8509 110.088 97.9641 109.963C98.0813 109.834 98.2493 109.77 98.468 109.77C98.6868 109.77 98.8528 109.834 98.9661 109.963C99.0833 110.088 99.1419 110.242 99.1419 110.426C99.1419 110.605 99.0833 110.758 98.9661 110.883C98.8528 111.008 98.6868 111.07 98.468 111.07C98.2493 111.07 98.0813 111.008 97.9641 110.883C97.8509 110.758 97.7942 110.605 97.7942 110.426Z" fill="white"/>
<g clip-path="url(#clip1_1160_143)">
<path d="M126.807 181.056L126.807 184.237C126.807 184.304 126.834 184.367 126.881 184.414C126.927 184.461 126.991 184.488 127.057 184.488C127.124 184.488 127.187 184.461 127.234 184.414C127.281 184.367 127.308 184.304 127.308 184.237L127.307 181.659L130.77 185.121C130.817 185.168 130.88 185.195 130.946 185.195C131.013 185.195 131.076 185.168 131.123 185.121C131.17 185.074 131.196 185.011 131.196 184.945C131.196 184.878 131.17 184.815 131.123 184.768L127.661 181.305L130.239 181.306C130.306 181.306 130.369 181.279 130.416 181.232C130.463 181.185 130.49 181.122 130.49 181.056C130.49 180.989 130.463 180.926 130.416 180.879C130.369 180.832 130.306 180.805 130.239 180.805L127.057 180.805C127.025 180.805 126.992 180.812 126.962 180.824C126.931 180.837 126.904 180.855 126.88 180.879C126.857 180.902 126.839 180.929 126.826 180.96C126.814 180.99 126.807 181.023 126.807 181.056Z" fill="white"/>
</g>
<g clip-path="url(#clip2_1160_143)">
<path d="M30.9464 180.805L27.7645 180.805C27.6981 180.805 27.6345 180.831 27.5876 180.878C27.5407 180.925 27.5143 180.989 27.5143 181.055C27.5143 181.121 27.5407 181.185 27.5876 181.232C27.6345 181.279 27.6981 181.305 27.7645 181.305L30.343 181.305L26.8806 184.767C26.8337 184.814 26.8073 184.878 26.8073 184.944C26.8073 185.01 26.8337 185.074 26.8806 185.121C26.9275 185.168 26.991 185.194 27.0573 185.194C27.1237 185.194 27.1872 185.168 27.2341 185.121L30.6965 181.658L30.6963 184.237C30.6963 184.303 30.7227 184.367 30.7696 184.414C30.8165 184.461 30.8801 184.487 30.9464 184.487C31.0128 184.487 31.0764 184.461 31.1233 184.414C31.1702 184.367 31.1966 184.303 31.1966 184.237L31.1966 181.055C31.1966 181.022 31.1901 180.99 31.1776 180.959C31.165 180.929 31.1466 180.901 31.1234 180.878C31.1001 180.855 31.0725 180.836 31.0422 180.824C31.0118 180.811 30.9793 180.805 30.9464 180.805Z" fill="white"/>
</g>
<g clip-path="url(#clip3_1160_143)">
<path d="M126.807 32.9445L126.807 29.7625C126.807 29.6962 126.834 29.6325 126.881 29.5856C126.927 29.5387 126.991 29.5124 127.057 29.5124C127.124 29.5124 127.187 29.5387 127.234 29.5856C127.281 29.6325 127.308 29.6962 127.308 29.7625L127.307 32.341L130.77 28.8786C130.817 28.8317 130.88 28.8054 130.946 28.8054C131.013 28.8054 131.076 28.8317 131.123 28.8786C131.17 28.9255 131.196 28.9891 131.196 29.0554C131.196 29.1217 131.17 29.1853 131.123 29.2322L127.661 32.6946L130.239 32.6943C130.306 32.6943 130.369 32.7207 130.416 32.7676C130.463 32.8145 130.49 32.8781 130.49 32.9445C130.49 33.0108 130.463 33.0744 130.416 33.1214C130.369 33.1683 130.306 33.1946 130.239 33.1946L127.057 33.1946C127.025 33.1946 126.992 33.1882 126.962 33.1756C126.931 33.1631 126.904 33.1446 126.88 33.1214C126.857 33.0982 126.839 33.0706 126.826 33.0402C126.814 33.0099 126.807 32.9773 126.807 32.9445Z" fill="white"/>
</g>
<g clip-path="url(#clip4_1160_143)">
<path d="M31.1928 32.9445L31.1928 29.7625C31.1928 29.6962 31.1664 29.6325 31.1195 29.5856C31.0726 29.5387 31.009 29.5124 30.9426 29.5124C30.8763 29.5124 30.8127 29.5387 30.7657 29.5856C30.7188 29.6325 30.6925 29.6962 30.6925 29.7625L30.6927 32.341L27.2303 28.8786C27.1834 28.8317 27.1198 28.8054 27.0535 28.8054C26.9872 28.8054 26.9236 28.8317 26.8768 28.8786C26.8299 28.9255 26.8035 28.9891 26.8035 29.0554C26.8035 29.1217 26.8299 29.1853 26.8768 29.2322L30.3391 32.6946L27.7606 32.6943C27.6943 32.6943 27.6307 32.7207 27.5838 32.7676C27.5369 32.8145 27.5105 32.8781 27.5105 32.9445C27.5105 33.0108 27.5369 33.0744 27.5838 33.1214C27.6307 33.1683 27.6943 33.1946 27.7606 33.1946L30.9426 33.1946C30.9755 33.1946 31.008 33.1882 31.0384 33.1756C31.0687 33.1631 31.0963 33.1446 31.1195 33.1214C31.1428 33.0982 31.1612 33.0706 31.1738 33.0402C31.1863 33.0099 31.1928 32.9773 31.1928 32.9445Z" fill="white"/>
</g>
</g>
<defs>
<filter id="filter0_d_1160_143" x="0" y="0" width="162" height="214" filterUnits="userSpaceOnUse" color-interpolation-filters="sRGB">
<feFlood flood-opacity="0" result="BackgroundImageFix"/>
<feColorMatrix in="SourceAlpha" type="matrix" values="0 0 0 0 0 0 0 0 0 0 0 0 0 0 0 0 0 0 127 0" result="hardAlpha"/>
<feOffset dx="2"/>
<feGaussianBlur stdDeviation="12.5"/>
<feComposite in2="hardAlpha" operator="out"/>
<feColorMatrix type="matrix" values="0 0 0 0 0 0 0 0 0 0 0 0 0 0 0 0 0 0 0.05 0"/>
<feBlend mode="normal" in2="BackgroundImageFix" result="effect1_dropShadow_1160_143"/>
<feBlend mode="normal" in="SourceGraphic" in2="effect1_dropShadow_1160_143" result="shape"/>
</filter>
<clipPath id="clip0_1160_143">
<rect width="112" height="164" fill="white" transform="matrix(-1 0 0 -1 135 189)"/>
</clipPath>
<clipPath id="clip1_1160_143">
<rect width="8" height="8" fill="white" transform="matrix(-0.707107 -0.707107 -0.707107 0.707107 134.657 183)"/>
</clipPath>
<clipPath id="clip2_1160_143">
<rect width="8" height="8" fill="white" transform="matrix(0.707107 -0.707107 -0.707107 -0.707107 29 188.656)"/>
</clipPath>
<clipPath id="clip3_1160_143">
<rect width="8" height="8" fill="white" transform="translate(134.657 31) rotate(135)"/>
</clipPath>
<clipPath id="clip4_1160_143">
<rect width="8" height="8" fill="white" transform="matrix(0.707107 0.707107 0.707107 -0.707107 23.3433 31)"/>
</clipPath>
</defs>
</svg>
